<svg width="32" height="33" viewBox="0 0 32 33" fill="none" xmlns="http://www.w3.org/2000/svg">
<g clip-path="url(#clip0_1_159)">
<path d="M27.6164 16.1199C27.6164 9.76369 22.3561 4.50342 16 4.50342C9.64382 4.50342 4.38354 9.76369 4.38354 16.1199C4.38354 22.476 9.64382 27.7363 16 27.7363C22.3561 27.7363 27.6164 22.476 27.6164 16.1199Z" fill="white"/>
<path d="M27.6164 16.1199C27.6164 9.76369 22.3561 4.50342 16 4.50342C9.64382 4.50342 4.38354 9.76369 4.38354 16.1199C4.38354 22.476 9.64382 27.7363 16 27.7363C22.3561 27.7363 27.6164 22.476 27.6164 16.1199Z" fill="#704A2C"/>
<path d="M25.863 24.887L27.8356 26.8596C30.2466 24.2295 31.7808 20.5034 32 16.7774H29.1507C28.9315 19.8459 27.8356 22.6952 25.863 24.887ZM29.1507 15.4623H32C31.7808 11.5171 30.2466 8.01028 27.8356 5.38015L25.863 7.35275C27.8356 9.54453 29.1507 12.3938 29.1507 15.4623ZM26.7397 4.28426C24.1096 1.8733 20.3836 0.119873 16.6575 0.119873V2.96919C19.726 3.18837 22.5753 4.28426 24.7671 6.25686L26.7397 4.28426ZM15.1233 2.96919V0.119873C11.1781 0.339051 7.67123 1.8733 5.0411 4.28426L7.0137 6.25686C9.20548 4.28426 12.0548 2.96919 15.1233 2.96919ZM6.13699 7.35275L4.16438 5.38015C1.75342 8.01028 0 11.7363 0 15.4623H2.84931C3.06849 12.3938 4.16438 9.54453 6.13699 7.35275ZM2.84931 16.7774H0C0.219178 20.7226 1.75342 24.2295 4.16438 26.8596L6.13699 24.887C4.16438 22.6952 2.84931 19.8459 2.84931 16.7774ZM5.26027 27.9555C7.89041 30.3664 11.6164 31.9007 15.3425 32.1199V29.2706C12.274 29.0514 9.42466 27.9555 7.23288 25.9829L5.26027 27.9555ZM16.8767 29.2706V32.1199C20.8219 31.9007 24.3288 30.3664 26.9589 27.9555L24.9863 25.9829C22.7945 27.9555 19.9452 29.2706 16.8767 29.2706Z" fill="#B9A55E"/>
<path d="M12.0548 17.6541C10.3014 18.5308 9.20551 19.8459 8.3288 21.5993C10.0822 24.0103 12.9315 25.5445 16.2192 25.5445C19.2877 25.5445 22.137 24.2295 23.8904 21.8185C23.2329 20.0651 21.9178 18.5308 20.1644 17.6541C19.0685 18.5308 17.7535 18.9692 16.2192 18.9692C14.685 18.9692 13.3699 18.5308 12.274 17.6541H12.0548Z" fill="white"/>
<path d="M12.0548 17.6541C10.3014 18.5308 9.20551 19.8459 8.3288 21.5993C10.0822 24.0103 12.9315 25.5445 16.2192 25.5445C19.2877 25.5445 22.137 24.2295 23.8904 21.8185C23.2329 20.0651 21.9178 18.5308 20.1644 17.6541C19.0685 18.5308 17.7535 18.9692 16.2192 18.9692C14.685 18.9692 13.3699 18.5308 12.274 17.6541H12.0548Z" fill="#704A2C" fill-opacity="0.05"/>
<path d="M21.2603 11.9554C21.2603 9.10609 18.8493 6.69513 16 6.69513C13.1507 6.69513 10.7397 9.10609 10.7397 11.9554C10.7397 14.8047 13.1507 17.2157 16 17.2157C18.8493 17.2157 21.2603 14.8047 21.2603 11.9554Z" fill="white"/>
<path d="M21.2603 11.9554C21.2603 9.10609 18.8493 6.69513 16 6.69513C13.1507 6.69513 10.7397 9.10609 10.7397 11.9554C10.7397 14.8047 13.1507 17.2157 16 17.2157C18.8493 17.2157 21.2603 14.8047 21.2603 11.9554Z" fill="#704A2C" fill-opacity="0.05"/>
</g>
<defs>
<clipPath id="clip0_1_159">
<rect y="0.119873" width="32" height="32" rx="7" fill="white"/>
</clipPath>
</defs>
</svg>
