<svg width="88" height="88" viewBox="0 0 88 88" fill="none" xmlns="http://www.w3.org/2000/svg">
<path d="M73.4525 56.5096C72.9186 56.3953 72.3612 56.4957 71.9007 56.789C71.4401 57.0823 71.1135 57.545 70.9912 58.0771L70.2075 61.6383C68.7984 59.7264 66.8818 58.2476 64.675 57.3693C62.4683 56.4911 60.0597 56.2487 57.7221 56.6695C55.3846 57.0903 53.2118 58.1576 51.4499 59.7503C49.688 61.3431 48.4076 63.3975 47.7537 65.6808C46.5648 65.1738 45.2857 64.9124 43.9931 64.9124C42.7006 64.9124 41.4214 65.1738 40.2325 65.6808C39.5636 63.4101 38.2763 61.37 36.5147 59.7887C34.7531 58.2073 32.5864 57.147 30.2568 56.7262C27.9272 56.3054 25.5265 56.5407 23.323 57.4058C21.1194 58.2708 19.1999 59.7316 17.7787 61.6249L17.0087 58.1734C16.8795 57.6484 16.5496 57.1949 16.0898 56.9105C15.63 56.6261 15.0769 56.5333 14.5495 56.6521C14.022 56.7709 13.5622 57.0919 13.2687 57.546C12.9753 58.0001 12.8716 58.5512 12.98 59.0809L15.2762 69.4209C16.1025 85.5204 38.9544 86.1546 40.6862 70.1633C41.6506 69.4725 42.807 69.1011 43.9931 69.1012C45.1793 69.1012 46.3357 69.4727 47.3 70.1634C47.5506 73.4222 49.0462 76.4594 51.4765 78.6448C53.9068 80.8303 57.0851 81.9962 60.3521 81.9007C63.6191 81.8052 66.724 80.4556 69.0224 78.1319C71.3208 75.8082 72.6364 72.6888 72.6962 69.4209L75.02 58.9847C75.1374 58.4488 75.0386 57.8883 74.7451 57.4249C74.4516 56.9614 73.9871 56.6325 73.4525 56.5096Z" fill="white"/>
<path d="M73.5349 31.2784C74.1924 32.6826 75.1281 34.5837 73.2711 35.5421C73.0238 35.6727 72.7522 35.7506 72.4733 35.771C72.1944 35.7914 71.9143 35.7539 71.6507 35.6607C71.387 35.5676 71.1455 35.4208 70.9413 35.2297C70.7372 35.0387 70.5748 34.8074 70.4644 34.5505C67.2274 27.0385 65.205 21.3916 60.9812 10.5434C60.49 9.26741 59.6298 8.16672 58.5103 7.38174C57.3909 6.59677 56.0629 6.16309 54.6959 6.13606C51.8423 5.868 47.8871 9.23864 45.54 10.5296C45.0967 10.7994 44.5877 10.9421 44.0687 10.9421C43.5498 10.9421 43.0408 10.7994 42.5975 10.5296L37.1662 7.13351C36.3087 6.60808 35.3473 6.27522 34.3484 6.15796C33.3496 6.04069 32.3372 6.14182 31.3813 6.45435C30.4254 6.76688 29.5488 7.28335 28.8122 7.96802C28.0755 8.6527 27.4964 9.48923 27.1149 10.4198C25.7262 13.8735 18.6591 31.5791 17.4349 34.6335C17.3498 34.8971 17.2125 35.1408 17.0312 35.3502C16.8499 35.5596 16.6283 35.7303 16.3796 35.8522C16.1309 35.9741 15.8602 36.0447 15.5837 36.0598C15.3071 36.0748 15.0304 36.034 14.7699 35.9398C14.5094 35.8456 14.2706 35.7 14.0677 35.5115C13.8647 35.323 13.7018 35.0956 13.5886 34.8428C13.4754 34.59 13.4143 34.317 13.4089 34.0401C13.4035 33.7632 13.4539 33.488 13.5571 33.231L13.6125 33.0934L14.3137 31.3334C9.19867 33.2034 4.81242 35.9946 4.81242 40.1057C4.96189 57.3757 83.0374 57.3746 83.1874 40.1059C83.1875 35.9671 78.7187 33.1484 73.5349 31.2784Z" fill="white"/>
</svg>
