<svg width="79" height="79" viewBox="0 0 79 79" fill="none" xmlns="http://www.w3.org/2000/svg">
<path d="M36.0438 40.8578H40.9813C41.7219 40.8578 42.3391 40.7344 42.8328 40.4875C43.45 40.2406 43.9438 39.9938 44.3141 39.6234C44.6844 39.2531 45.0547 38.7594 45.3016 38.2656C45.5484 37.7719 45.6719 37.1547 45.6719 36.5375C45.6719 35.9203 45.5484 35.3031 45.425 34.8094C45.1781 34.3156 44.9312 33.8219 44.5609 33.4516C44.1906 33.0813 43.6969 32.7109 43.0797 32.5875C42.4625 32.3406 41.8453 32.2172 41.1047 32.2172H31.6V35.55H41.1047C41.475 35.55 41.8453 35.6734 42.0922 35.7969C42.3391 36.0438 42.4625 36.2906 42.4625 36.6609C42.4625 37.0313 42.3391 37.2781 42.0922 37.525C41.8453 37.7719 41.5984 37.7719 41.1047 37.7719H36.1672C34.6859 37.7719 33.575 38.1422 32.7109 38.8828C31.8469 39.6234 31.4766 40.7344 31.4766 42.2156V46.6594H45.425V43.3266H34.5625V41.9688C34.5625 41.475 34.8094 40.8578 36.0438 40.8578ZM60.6078 39.8703V32.2172H57.275V39.8703H52.0906C51.4734 39.8703 51.1031 39.7469 50.8563 39.5C50.6094 39.2531 50.4859 38.8828 50.4859 38.2656V32.2172H47.1531V38.2656C47.1531 39.8703 47.6469 41.1047 48.5109 41.9688C49.375 42.7094 50.6094 43.0797 52.0906 43.0797H57.275V46.6594H60.6078V43.0797H62.5828V39.8703H60.6078Z" fill="white"/>
<path d="M30.489 55.4234C30.2422 54.3125 29.7484 53.4484 29.0078 52.8312C28.2672 52.0906 27.2797 51.7203 26.0453 51.5969H25.7984C25.3047 51.4734 24.6875 51.4734 23.9468 51.5969C22.2187 51.8437 20.3672 52.0906 18.639 52.4609C17.775 52.214 12.0968 39.5 17.6515 26.9094C19.1328 27.0328 20.7375 27.1562 22.4656 27.2797C23.3297 27.2797 24.1937 27.1562 25.1812 27.0328C27.1562 26.539 28.3906 25.3047 28.8843 23.3297C29.1312 22.3422 29.2547 21.3547 29.3781 20.4906L29.625 18.5156C29.9953 15.9234 30.3656 13.0844 30.7359 10.3687C30.9828 8.64061 30.3656 7.40624 29.7484 6.54218C29.7484 6.2953 29.625 6.17186 29.5015 6.04843C29.1312 5.67811 28.6375 5.3078 28.0203 5.06093C26.9093 4.56718 25.675 4.56718 24.564 5.06093C16.9109 8.2703 10.6156 13.9484 6.66559 21.2312C3.57966 26.6625 1.85153 32.8344 1.85153 39.3765C1.85153 47.7703 4.69059 55.5469 9.38122 61.7187C13.4547 67.15 19.1328 71.4703 25.5515 74.0625C26.539 74.4328 27.7734 74.4328 28.7609 74.0625C29.625 73.6922 30.489 73.3219 31.1062 72.9515C31.2297 72.8281 31.3531 72.8281 31.4765 72.7047C33.0812 71.5937 33.6984 69.8656 33.3281 67.7672C32.3406 63.3234 31.4765 59.3734 30.489 55.4234Z" fill="white"/>
<path d="M39.6234 1.97501C38.1422 1.97501 36.6609 2.09844 35.1797 2.22188C36.7844 4.07344 37.6484 6.29532 37.7719 8.76407C38.3891 8.76407 39.0062 8.64063 39.6234 8.64063C56.5344 8.76407 70.3594 22.5891 70.3594 39.5C70.3594 56.2875 56.7812 69.9891 40.1172 70.2359C39.8703 72.8281 38.6359 75.1734 36.7844 76.9016C37.6484 77.025 38.6359 77.025 39.5 77.025C60.2375 77.025 77.025 60.2375 77.025 39.5C77.1484 18.7625 60.3609 1.97501 39.6234 1.97501Z" fill="white"/>
</svg>
