<svg width="97" height="280" viewBox="0 0 97 280" fill="none" xmlns="http://www.w3.org/2000/svg">
<path opacity="0.15" d="M-77 269.148L-77 301.469C-31.8889 298.237 6.77778 282.076 39 252.987L16.4445 230.362C-9.33332 252.987 -41.5556 265.916 -77 269.148ZM26.1111 220.666L48.6667 243.291C77.6667 214.201 93.7778 172.183 97 126.933L64.7778 126.933C61.5556 162.487 48.6667 194.809 26.1111 220.666ZM64.7778 114.005L97 114.005C93.7778 68.7551 77.6667 29.9692 48.6667 -2.35215L26.1111 20.2727C48.6667 46.1298 61.5556 78.4516 64.7778 114.005ZM39 -12.0488C10 -41.1381 -31.8889 -57.2987 -77 -60.5308L-77 -28.2093C-41.5555 -24.9771 -9.3333 -12.0489 16.4445 10.5761L39 -12.0488Z" fill="#B9A55E"/>
</svg>
