<svg width="87" height="87" viewBox="0 0 87 87" fill="none" xmlns="http://www.w3.org/2000/svg">
<path opacity="0.6" fill-rule="evenodd" clip-rule="evenodd" d="M16.2313 29.7572H5.41022V37.8729C5.41022 42.3554 9.04409 45.9886 13.5259 45.9886H16.2313V29.7572ZM81.1567 29.7572H70.3356V45.9886H73.041C77.5235 45.9886 81.1567 42.3554 81.1567 37.8729V29.7572ZM81.1567 24.347V16.2313C81.1567 11.7489 77.5235 8.11566 73.041 8.11566H13.5259C9.04409 8.11566 5.41022 11.7489 5.41022 16.2313V24.347H81.1567ZM62.2199 18.9368H67.6308C68.3481 18.9363 69.0359 18.651 69.543 18.1438C70.0502 17.6365 70.3352 16.9486 70.3356 16.2313C70.3356 14.738 69.1234 13.5259 67.6308 13.5259H62.2199C61.5026 13.5264 60.8148 13.8116 60.3077 14.3189C59.8005 14.8262 59.5155 15.514 59.5151 16.2313C59.5151 17.7246 60.7273 18.9368 62.2199 18.9368Z" fill="white"/>
<path fill-rule="evenodd" clip-rule="evenodd" d="M64.9253 29.7573H21.6415V70.3356C21.6417 72.488 22.4968 74.5521 24.0188 76.0741C25.5407 77.596 27.6049 78.4511 29.7572 78.4513H56.8097C58.962 78.4511 61.0262 77.596 62.5481 76.0741C64.0701 74.5521 64.9252 72.488 64.9253 70.3356V29.7573ZM40.5783 40.5427C38.8857 40.964 37.4489 41.8412 36.4802 43.1455C35.683 44.2194 35.1681 45.6004 35.1681 47.3598C35.1681 50.847 37.5768 52.6162 40.9244 53.5927C42.1372 53.9465 43.4727 54.2049 44.6368 54.5951C44.9958 54.7152 45.3348 54.8457 45.6282 55.0152C45.8107 55.1204 45.9886 55.2327 45.9886 55.4755C45.9886 56.5533 45.1724 56.9675 44.2745 57.0882C42.6449 57.3083 40.69 56.8175 39.3863 55.9378C38.7913 55.537 38.0616 55.3887 37.3573 55.5255C36.6531 55.6624 36.032 56.0731 35.6304 56.6675C35.2296 57.2624 35.0813 57.9921 35.2182 58.6962C35.355 59.4003 35.7657 60.0213 36.3601 60.4228C37.5418 61.2201 39.0234 61.8259 40.5783 62.1764V62.2199C40.5783 63.7132 41.7905 64.9254 43.2838 64.9254C43.9942 64.925 44.6759 64.6453 45.1819 64.1467C45.6879 63.6481 45.9776 62.9705 45.9886 62.2602C46.2762 62.1927 46.556 62.1115 46.8254 62.0161C49.4802 61.0779 51.3994 59.0315 51.3994 55.4755C51.3994 51.9884 48.9901 50.2191 45.6425 49.2427C44.4297 48.8888 43.0942 48.6298 41.9301 48.2396C41.571 48.1195 41.2328 47.989 40.9393 47.8195C40.7562 47.7143 40.5783 47.602 40.5783 47.3598C40.5783 46.271 41.3983 45.8393 42.3053 45.7127C43.9187 45.4874 45.8542 45.9704 47.1449 46.8722C47.7332 47.2827 48.4604 47.4428 49.1668 47.3175C49.8731 47.1921 50.5007 46.7914 50.9118 46.2035C51.3223 45.6152 51.4825 44.888 51.3571 44.1816C51.2317 43.4753 50.831 42.8476 50.2431 42.4365C49.0524 41.6048 47.5559 40.9712 45.9886 40.6063V40.5784C45.9886 39.0851 44.7764 37.8729 43.2838 37.8729C42.5725 37.8734 41.89 38.1537 41.3838 38.6532C40.8776 39.1528 40.5882 39.8315 40.5783 40.5427Z" fill="white"/>
</svg>
