<svg width="76" height="92" viewBox="0 0 76 92" fill="none" xmlns="http://www.w3.org/2000/svg">
<path opacity="0.6" d="M9.85183 59.1113C5.6296 63.3336 2.81478 67.5558 -3.05176e-05 71.778C8.44441 83.0373 22.5185 91.4817 38 91.4817C53.4815 91.4817 66.1481 84.4445 76 73.1852C73.1852 67.5556 68.9629 61.9261 64.7407 57.7039L61.9259 74.5926L46.4444 68.9632L38 83.0373L29.5555 68.9632L12.6666 74.5926L11.2592 57.7039L9.85183 59.1113Z" fill="white"/>
<path opacity="0.6" d="M63.3332 25.3334C63.3332 11.2593 52.074 0 37.9999 0C23.9258 0 12.6666 11.2593 12.6666 25.3334C12.6666 39.4075 23.9258 50.6665 37.9999 50.6665C52.074 50.6665 63.3332 39.4075 63.3332 25.3334Z" fill="white"/>
<path d="M35.1853 63.3332V56.2962L15.4816 50.6665L18.2964 67.5555L35.1853 63.3332Z" fill="white"/>
<path d="M56.2962 67.5555L60.5185 50.6665L39.4073 56.2962V63.3332L56.2962 67.5555Z" fill="white"/>
</svg>
