<svg width="78" height="78" viewBox="0 0 78 78" fill="none" xmlns="http://www.w3.org/2000/svg">
<path d="M23.9978 2.78718L71.7278 15.5813C75.4812 16.5836 77.721 20.4801 76.7187 24.2233L63.9348 71.9533C62.9325 75.7067 59.036 77.9464 55.2826 76.9442L7.5526 64.1602C3.79924 63.158 1.55949 59.2614 2.56175 55.5081L15.3457 7.77802C16.3479 4.02466 20.2445 1.78492 23.9978 2.78718V2.78718ZM49.5043 64.4364C52.3372 65.1932 55.2315 63.5261 55.9883 60.6932C56.7451 57.8603 55.0781 54.966 52.2452 54.2092C49.4122 53.4524 46.518 55.1194 45.7612 57.9524C45.0044 60.7853 46.6714 63.6796 49.5043 64.4364ZM57.7269 33.7549C60.5598 34.5118 63.4541 32.8447 64.2109 30.0118C64.9677 27.1789 63.3007 24.2846 60.4678 23.5278C57.6349 22.771 54.7406 24.438 53.9838 27.2709C53.227 30.1039 54.894 32.9981 57.7269 33.7549ZM38.2749 44.9843C41.1078 45.7412 44.0021 44.0741 44.7589 41.2412C45.5157 38.4083 43.8487 35.514 41.0158 34.7572C38.1829 34.0004 35.2886 35.6674 34.5318 38.5003C33.775 41.3333 35.442 44.2275 38.2749 44.9843ZM18.8229 56.2137C21.6558 56.9705 24.5501 55.3035 25.3069 52.4706C26.0637 49.6377 24.3967 46.7434 21.5638 45.9866C18.7308 45.2298 15.8366 46.8968 15.0798 49.7297C14.3229 52.5627 15.99 55.4569 18.8229 56.2137ZM27.0455 25.5323C29.8784 26.2891 32.7727 24.6221 33.5295 21.7892C34.2863 18.9563 32.6193 16.062 29.7864 15.3052C26.9535 14.5484 24.0592 16.2154 23.3024 19.0483C22.5456 21.8812 24.2126 24.7755 27.0455 25.5323Z" fill="white"/>
<path opacity="0.6" d="M32.5375 75.635L24.6524 77.752C21.2161 78.6725 17.657 76.6168 16.7366 73.1703L16.2252 71.2578L32.5375 75.6248V75.635Z" fill="white"/>
<path opacity="0.6" d="M75.7268 45.7612L77.7517 53.319C78.6824 56.7553 76.6165 60.3144 73.17 61.2348L71.4621 61.695L75.7268 45.7612Z" fill="white"/>
<path opacity="0.6" d="M42.7851 3.04245L53.3292 0.219762C56.7656 -0.70068 60.3246 1.35497 61.2451 4.80152L62.1655 8.24806L42.7851 3.05268V3.04245Z" fill="white"/>
<path opacity="0.6" d="M4.80152 16.7265L8.43214 15.7549L3.13449 35.5138L0.219753 24.6423C-0.700689 21.206 1.35498 17.647 4.80152 16.7265V16.7265Z" fill="white"/>
</svg>
