<svg width="32" height="33" viewBox="0 0 32 33" fill="none" xmlns="http://www.w3.org/2000/svg">
<g clip-path="url(#clip0_1_170)">
<path d="M27.4286 16.1199C27.4286 9.83416 22.2857 4.69128 16 4.69128C9.71427 4.69128 4.57141 9.83416 4.57141 16.1199C4.57141 22.4056 9.71427 27.5484 16 27.5484C22.2857 27.5484 27.4286 22.4056 27.4286 16.1199Z" fill="white"/>
<path d="M27.4286 16.1199C27.4286 9.83416 22.2857 4.69128 16 4.69128C9.71427 4.69128 4.57141 9.83416 4.57141 16.1199C4.57141 22.4056 9.71427 27.5484 16 27.5484C22.2857 27.5484 27.4286 22.4056 27.4286 16.1199Z" fill="#704A2C"/>
<path d="M15.3508 25.4321V23.3865C14.5422 23.3384 13.7595 23.2043 13.0049 22.9841C12.0421 22.7039 11.2675 22.3376 10.679 21.8873L11.7119 19.5994C12.2743 19.9997 12.9409 20.328 13.7095 20.5842C14.2519 20.7643 14.7984 20.8824 15.3528 20.9345V17.7919C14.8864 17.6838 14.4221 17.5537 13.9537 17.4036C13.4112 17.2295 12.9128 17.0033 12.4625 16.7271C12.0121 16.4528 11.6458 16.0905 11.3656 15.6402C11.0854 15.1898 10.9432 14.6153 10.9432 13.9148C10.9432 13.1642 11.1474 12.4796 11.5537 11.8611C11.9621 11.2426 12.5726 10.7482 13.3912 10.3779C13.9477 10.1297 14.6042 9.96156 15.3528 9.8815V7.7998H17.2263V9.85147C17.7948 9.89351 18.3573 9.98158 18.9137 10.1157C19.7144 10.3098 20.4209 10.6001 21.0334 10.9884L20.0967 13.2963C19.4842 12.946 18.8697 12.6858 18.2592 12.5176C17.9109 12.4216 17.5666 12.3515 17.2263 12.3115V15.5181C17.6807 15.6262 18.1331 15.7503 18.5875 15.8844C19.1319 16.0445 19.6283 16.2647 20.0767 16.5409C20.529 16.8171 20.8933 17.1794 21.1736 17.6278C21.4578 18.0802 21.5979 18.6466 21.5979 19.3372C21.5979 20.0738 21.3897 20.7483 20.9774 21.3628C20.5651 21.9753 19.9506 22.4677 19.1319 22.844C18.5895 23.0902 17.9549 23.2564 17.2263 23.3424V25.4321H15.3528H15.3508ZM15.3508 15.0437V12.3715C15.2287 12.3995 15.1166 12.4336 15.0125 12.4716C14.6382 12.6077 14.368 12.7859 14.2059 13.006C14.0418 13.2242 13.9617 13.4804 13.9617 13.7667C13.9617 14.1029 14.0978 14.3751 14.374 14.5813C14.6242 14.7695 14.9525 14.9256 15.3508 15.0437ZM17.2243 18.2663V20.8624L17.4966 20.7924C17.8669 20.6723 18.1371 20.5061 18.3112 20.294C18.4854 20.0818 18.5734 19.8376 18.5734 19.5614C18.5734 19.2111 18.4373 18.9329 18.1591 18.7267C17.9169 18.5445 17.6027 18.3904 17.2223 18.2663H17.2243Z" fill="white"/>
<path d="M25.7143 24.977L27.7143 26.977C30.2857 24.4056 31.7143 20.6913 32 16.6913H29.1429C28.8571 19.8342 27.7143 22.6913 25.7143 24.977ZM29.1429 15.5484H32C31.7143 11.5484 30.2857 8.11988 27.7143 5.26274L25.7143 7.26273C27.7143 9.54844 28.8571 12.4056 29.1429 15.5484ZM26.8571 4.40558C24.2857 1.83415 20.5714 0.405587 16.5714 0.119873V2.97703C19.7143 3.26274 22.5714 4.4056 24.8571 6.4056L26.8571 4.40558ZM15.4286 2.97703V0.119873C11.4286 0.405587 8 1.83415 5.14286 4.40558L7.14286 6.4056C9.42857 4.4056 12.2857 3.26274 15.4286 2.97703ZM6.28571 7.26273L4.28571 5.26274C1.71429 7.83417 0.285714 11.5484 0 15.5484H2.85714C3.14286 12.4056 4.28571 9.54844 6.28571 7.26273ZM2.85714 16.6913H0C0.285714 20.6913 1.71429 24.1199 4.28571 26.977L6.28571 24.977C4.28571 22.6913 3.14286 19.8342 2.85714 16.6913ZM5.14286 27.8342C7.71429 30.4056 11.4286 31.8342 15.4286 32.1199V29.2627C12.2857 28.977 9.42857 27.8342 7.14286 25.8341L5.14286 27.8342ZM16.5714 29.2627V32.1199C20.5714 31.8342 24 30.4056 26.8571 27.8342L24.8571 25.8341C22.5714 27.8342 19.7143 28.977 16.5714 29.2627Z" fill="#B9A55E"/>
</g>
<defs>
<clipPath id="clip0_1_170">
<rect y="0.119873" width="32" height="32" rx="7" fill="white"/>
</clipPath>
</defs>
</svg>
