<svg width="32" height="33" viewBox="0 0 32 33" fill="none" xmlns="http://www.w3.org/2000/svg">
<g clip-path="url(#clip0_1_181)">
<path d="M27.4286 16.1199C27.4286 9.83416 22.2857 4.69128 16 4.69128C9.71427 4.69128 4.57141 9.83416 4.57141 16.1199C4.57141 22.4056 9.71427 27.5484 16 27.5484C22.2857 27.5484 27.4286 22.4056 27.4286 16.1199Z" fill="white"/>
<path d="M27.4286 16.1199C27.4286 9.83416 22.2857 4.69128 16 4.69128C9.71427 4.69128 4.57141 9.83416 4.57141 16.1199C4.57141 22.4056 9.71427 27.5484 16 27.5484C22.2857 27.5484 27.4286 22.4056 27.4286 16.1199Z" fill="#704A2C"/>
<path d="M19.2729 8.41901L9.93133 10.923C9.19673 11.1192 8.75838 11.8818 8.95454 12.6144L11.4566 21.956C11.6527 22.6906 12.4153 23.129 13.1499 22.9328L22.4915 20.4308C23.2261 20.2346 23.6645 19.472 23.4683 18.7374L20.9663 9.3958C20.7701 8.6612 20.0075 8.22285 19.2729 8.41901ZM14.2809 20.4848C13.7264 20.6329 13.1599 20.3067 13.0118 19.7522C12.8637 19.1978 13.19 18.6313 13.7444 18.4832C14.2989 18.3351 14.8653 18.6613 15.0135 19.2158C15.1616 19.7702 14.8353 20.3367 14.2809 20.4848ZM12.6715 14.4799C12.1171 14.6281 11.5506 14.3018 11.4025 13.7473C11.2544 13.1929 11.5807 12.6264 12.1351 12.4783C12.6896 12.3302 13.256 12.6565 13.4041 13.2109C13.5523 13.7654 13.226 14.3318 12.6715 14.4799ZM16.4786 16.6777C15.9242 16.8258 15.3577 16.4996 15.2096 15.9451C15.0615 15.3907 15.3878 14.8242 15.9422 14.6761C16.4967 14.528 17.0631 14.8542 17.2112 15.4087C17.3594 15.9631 17.0331 16.5296 16.4786 16.6777ZM20.2857 18.8755C19.7313 19.0236 19.1648 18.6974 19.0167 18.1429C18.8686 17.5885 19.1949 17.022 19.7493 16.8739C20.3038 16.7258 20.8702 17.052 21.0183 17.6065C21.1665 18.1609 20.8402 18.7274 20.2857 18.8755ZM18.6764 12.8706C18.122 13.0187 17.5555 12.6925 17.4074 12.138C17.2593 11.5836 17.5855 11.0171 18.14 10.869C18.6944 10.7209 19.2609 11.0471 19.409 11.6016C19.5571 12.156 19.2309 12.7225 18.6764 12.8706Z" fill="white"/>
<path d="M17.6016 22.6766L19.1448 23.0909C19.8174 23.2711 20.514 22.8687 20.6941 22.1942L20.7942 21.8199L17.6016 22.6746V22.6766Z" fill="white"/>
<path d="M9.14872 16.8297L8.75241 18.3089C8.57026 18.9815 8.97458 19.6781 9.64913 19.8582L9.9834 19.9483L9.14872 16.8297Z" fill="white"/>
<path d="M15.5959 8.46896L13.5323 7.91652C12.8597 7.73637 12.1632 8.1387 11.983 8.81324L11.8029 9.48779L15.5959 8.47097V8.46896Z" fill="white"/>
<path d="M23.03 11.1472L22.3194 10.957L23.3563 14.8242L23.9267 12.6964C24.1069 12.0239 23.7045 11.3273 23.03 11.1472Z" fill="white"/>
<path d="M25.7143 24.977L27.7143 26.977C30.2857 24.4056 31.7143 20.6913 32 16.6913H29.1429C28.8571 19.8342 27.7143 22.6913 25.7143 24.977ZM29.1429 15.5484H32C31.7143 11.5484 30.2857 8.11988 27.7143 5.26274L25.7143 7.26273C27.7143 9.54844 28.8571 12.4056 29.1429 15.5484ZM26.8571 4.4056C24.2857 1.83418 20.5714 0.405587 16.5714 0.119873V2.97703C19.7143 3.26274 22.5714 4.4056 24.8571 6.4056L26.8571 4.4056ZM15.4286 2.97703V0.119873C11.4286 0.405587 8 1.83418 5.14286 4.4056L7.14286 6.4056C9.42857 4.4056 12.2857 3.26274 15.4286 2.97703ZM6.28571 7.26273L4.28571 5.26274C1.71429 7.83417 0.285714 11.5484 0 15.5484H2.85714C3.14286 12.4056 4.28571 9.54844 6.28571 7.26273ZM2.85714 16.6913H0C0.285714 20.6913 1.71429 24.1199 4.28571 26.977L6.28571 24.977C4.28571 22.6913 3.14286 19.8342 2.85714 16.6913ZM5.14286 27.8342C7.71429 30.4056 11.4286 31.8342 15.4286 32.1199V29.2627C12.2857 28.977 9.42857 27.8342 7.14286 25.8342L5.14286 27.8342ZM16.5714 29.2627V32.1199C20.5714 31.8342 24 30.4056 26.8571 27.8342L24.8571 25.8342C22.5714 27.8342 19.7143 28.977 16.5714 29.2627Z" fill="#B9A55E"/>
</g>
<defs>
<clipPath id="clip0_1_181">
<rect y="0.119873" width="32" height="32" rx="7" fill="white"/>
</clipPath>
</defs>
</svg>
