<svg width="24" height="24" viewBox="0 0 24 24" fill="none" xmlns="http://www.w3.org/2000/svg">
<g clip-path="url(#clip0_238_1482)">
<path d="M24 12C24 5.38652 18.6114 0 12 0C5.38652 0 0 5.38861 0 12C0 18.6114 5.38861 24 12 24C18.6135 24 24 18.6114 24 12Z" fill="white"/>
<path d="M24 12C24 5.38652 18.6114 0 12 0C5.38652 0 0 5.38861 0 12C0 18.6114 5.38861 24 12 24C18.6135 24 24 18.6114 24 12Z" fill="#704A2C"/>
<path d="M12 12C11.8821 12 11.7691 11.9509 11.6857 11.8635C11.6024 11.776 11.5556 11.6574 11.5556 11.5338H10.8889C10.771 11.5338 10.658 11.4847 10.5746 11.3972C10.4913 11.3098 10.4444 11.1912 10.4444 11.0676C10.4444 10.9439 10.4913 10.8254 10.5746 10.7379C10.658 10.6505 10.771 10.6014 10.8889 10.6014H12.2222C12.3401 10.6014 12.4531 10.5523 12.5365 10.4648C12.6198 10.3774 12.6667 10.2588 12.6667 10.1352C12.6667 10.0115 12.6198 9.89294 12.5365 9.80551C12.4531 9.71807 12.3401 9.66896 12.2222 9.66896H11.7778C11.4448 9.66693 11.1246 9.53429 10.8802 9.29713C10.6357 9.05996 10.4847 8.73543 10.4568 8.38737C10.429 8.03932 10.5263 7.69292 10.7296 7.41631C10.9329 7.13971 11.2276 6.95292 11.5556 6.89268V6.8717C11.5556 6.74806 11.6024 6.62947 11.6857 6.54204C11.7691 6.45461 11.8821 6.40549 12 6.40549C12.1179 6.40549 12.2309 6.45461 12.3143 6.54204C12.3976 6.62947 12.4444 6.74806 12.4444 6.8717H13.1111C13.229 6.8717 13.342 6.92082 13.4254 7.00825C13.5087 7.09568 13.5556 7.21427 13.5556 7.33791C13.5556 7.46156 13.5087 7.58014 13.4254 7.66757C13.342 7.755 13.229 7.80412 13.1111 7.80412H11.7778C11.6599 7.80412 11.5469 7.85324 11.4635 7.94067C11.3802 8.0281 11.3333 8.14668 11.3333 8.27033C11.3333 8.39398 11.3802 8.51256 11.4635 8.59999C11.5469 8.68742 11.6599 8.73654 11.7778 8.73654H12.2222C12.5552 8.73856 12.8754 8.8712 13.1198 9.10837C13.3643 9.34553 13.5153 9.67006 13.5432 10.0181C13.571 10.3662 13.4737 10.7126 13.2704 10.9892C13.0671 11.2658 12.7724 11.4526 12.4444 11.5128V11.5338C12.4444 11.6574 12.3976 11.776 12.3143 11.8635C12.2309 11.9509 12.1179 12 12 12H14.9756C15.4921 11.3969 15.831 10.6497 15.9513 9.8488C16.0715 9.04791 15.968 8.22762 15.6533 7.48713C15.3385 6.74664 14.826 6.11767 14.1776 5.67628C13.5293 5.2349 12.7729 5 12 5C11.2271 5 10.4707 5.2349 9.82238 5.67628C9.17404 6.11767 8.66149 6.74664 8.34673 7.48713C8.03196 8.22762 7.92845 9.04791 8.04873 9.8488C8.169 10.6497 8.5079 11.3969 9.02445 12H12Z" fill="white"/>
<path d="M18.0667 10H17.1333C17.1339 10.6758 16.9698 11.3435 16.6527 11.9558C16.7755 12.0761 16.8568 12.2261 16.8867 12.3874C16.9166 12.5487 16.8938 12.7144 16.8211 12.8643C16.7483 13.0141 16.6288 13.1416 16.477 13.2311C16.3253 13.3206 16.148 13.3683 15.9667 13.3684H8.03333C7.85204 13.3683 7.6747 13.3206 7.52297 13.2311C7.37125 13.1416 7.2517 13.0141 7.17895 12.8643C7.10619 12.7144 7.08337 12.5487 7.11327 12.3874C7.14317 12.2261 7.22451 12.0761 7.34733 11.9558C7.03017 11.3435 6.86608 10.6758 6.86667 10H5.93333C5.6858 10 5.4484 10.0887 5.27337 10.2466C5.09833 10.4046 5 10.6188 5 10.8421V17.1579C5 17.3812 5.09833 17.5954 5.27337 17.7534C5.4484 17.9113 5.6858 18 5.93333 18H18.0667C18.3142 18 18.5516 17.9113 18.7266 17.7534C18.9017 17.5954 19 17.3812 19 17.1579V10.8421C19 10.6188 18.9017 10.4046 18.7266 10.2466C18.5516 10.0887 18.3142 10 18.0667 10ZM13.4 16.7368C13.3077 16.7368 13.2175 16.7121 13.1407 16.6659C13.064 16.6196 13.0042 16.5539 12.9689 16.4769C12.9335 16.4 12.9243 16.3153 12.9423 16.2336C12.9603 16.152 13.0048 16.0769 13.07 16.0181C13.1353 15.9592 13.2184 15.9191 13.309 15.9028C13.3995 15.8866 13.4933 15.8949 13.5786 15.9268C13.6639 15.9587 13.7367 16.0126 13.788 16.0819C13.8393 16.1511 13.8667 16.2325 13.8667 16.3158C13.8667 16.4275 13.8175 16.5346 13.73 16.6135C13.6425 16.6925 13.5238 16.7368 13.4 16.7368ZM15.2667 16.7368C15.1744 16.7368 15.0841 16.7121 15.0074 16.6659C14.9307 16.6196 14.8708 16.5539 14.8355 16.4769C14.8002 16.4 14.791 16.3153 14.809 16.2336C14.827 16.152 14.8714 16.0769 14.9367 16.0181C15.0019 15.9592 15.0851 15.9191 15.1756 15.9028C15.2661 15.8866 15.36 15.8949 15.4453 15.9268C15.5305 15.9587 15.6034 16.0126 15.6547 16.0819C15.706 16.1511 15.7333 16.2325 15.7333 16.3158C15.7333 16.4275 15.6842 16.5346 15.5967 16.6135C15.5091 16.6925 15.3904 16.7368 15.2667 16.7368ZM17.1333 16.7368C17.041 16.7368 16.9508 16.7121 16.8741 16.6659C16.7973 16.6196 16.7375 16.5539 16.7022 16.4769C16.6669 16.4 16.6576 16.3153 16.6756 16.2336C16.6936 16.152 16.7381 16.0769 16.8033 16.0181C16.8686 15.9592 16.9518 15.9191 17.0423 15.9028C17.1328 15.8866 17.2266 15.8949 17.3119 15.9268C17.3972 15.9587 17.4701 16.0126 17.5214 16.0819C17.5726 16.1511 17.6 16.2325 17.6 16.3158C17.6 16.4275 17.5508 16.5346 17.4633 16.6135C17.3758 16.6925 17.2571 16.7368 17.1333 16.7368Z" fill="white"/>
</g>
<defs>
<clipPath id="clip0_238_1482">
<rect width="24" height="24" fill="white"/>
</clipPath>
</defs>
</svg>
