<svg width="28" height="28" viewBox="0 0 28 28" fill="none" xmlns="http://www.w3.org/2000/svg">
<path d="M27.3334 14C27.3334 6.64002 21.36 0.666687 14 0.666687C6.64002 0.666687 0.666687 6.64002 0.666687 14C0.666687 20.4534 5.25335 25.8267 11.3334 27.0667V18H8.66669V14H11.3334V10.6667C11.3334 8.09335 13.4267 6.00002 16 6.00002H19.3334V10H16.6667C15.9334 10 15.3334 10.6 15.3334 11.3334V14H19.3334V18H15.3334V27.2667C22.0667 26.6 27.3334 20.92 27.3334 14Z" fill="white"/>
<path d="M27.3334 14C27.3334 6.64002 21.36 0.666687 14 0.666687C6.64002 0.666687 0.666687 6.64002 0.666687 14C0.666687 20.4534 5.25335 25.8267 11.3334 27.0667V18H8.66669V14H11.3334V10.6667C11.3334 8.09335 13.4267 6.00002 16 6.00002H19.3334V10H16.6667C15.9334 10 15.3334 10.6 15.3334 11.3334V14H19.3334V18H15.3334V27.2667C22.0667 26.6 27.3334 20.92 27.3334 14Z" fill="#704A2C"/>
</svg>
