<svg width="28" height="28" viewBox="0 0 28 28" fill="none" xmlns="http://www.w3.org/2000/svg">
<path d="M18.1667 14C18.1667 15.1051 17.7277 16.1649 16.9463 16.9463C16.1649 17.7277 15.1051 18.1667 14 18.1667C12.895 18.1667 11.8351 17.7277 11.0537 16.9463C10.2723 16.1649 9.83335 15.1051 9.83335 14C9.83335 13.7625 9.85835 13.5306 9.90141 13.3056H8.44446V18.857C8.44446 19.2431 8.75696 19.5556 9.14307 19.5556H18.8584C19.0434 19.5552 19.2207 19.4814 19.3514 19.3505C19.4822 19.2195 19.5556 19.042 19.5556 18.857V13.3056H18.0986C18.1417 13.5306 18.1667 13.7625 18.1667 14ZM14 16.7778C14.3649 16.7777 14.7262 16.7057 15.0632 16.566C15.4003 16.4263 15.7066 16.2216 15.9645 15.9635C16.2224 15.7054 16.427 15.3991 16.5666 15.062C16.7061 14.7248 16.7779 14.3635 16.7778 13.9986C16.7777 13.6338 16.7057 13.2725 16.566 12.9354C16.4263 12.5983 16.2216 12.2921 15.9635 12.0342C15.7054 11.7762 15.3991 11.5716 15.062 11.4321C14.7248 11.2925 14.3635 11.2208 13.9986 11.2209C13.2617 11.221 12.5551 11.5139 12.0342 12.0351C11.5132 12.5563 11.2207 13.2631 11.2209 14C11.221 14.7369 11.5139 15.4436 12.0351 15.9645C12.5563 16.4854 13.2631 16.778 14 16.7778ZM17.3334 11.0834H18.9986C19.1093 11.0834 19.2154 11.0395 19.2938 10.9614C19.3721 10.8833 19.4163 10.7773 19.4167 10.6667V9.00141C19.4167 8.89053 19.3726 8.7842 19.2942 8.7058C19.2158 8.6274 19.1095 8.58335 18.9986 8.58335H17.3334C17.2225 8.58335 17.1161 8.6274 17.0377 8.7058C16.9593 8.7842 16.9153 8.89053 16.9153 9.00141V10.6667C16.9167 10.8959 17.1042 11.0834 17.3334 11.0834ZM14 0.666687C10.4638 0.666687 7.07241 2.07144 4.57193 4.57193C2.07144 7.07241 0.666687 10.4638 0.666687 14C0.666687 17.5362 2.07144 20.9276 4.57193 23.4281C7.07241 25.9286 10.4638 27.3334 14 27.3334C15.751 27.3334 17.4848 26.9885 19.1025 26.3184C20.7201 25.6484 22.19 24.6662 23.4281 23.4281C24.6662 22.19 25.6484 20.7201 26.3184 19.1025C26.9885 17.4848 27.3334 15.751 27.3334 14C27.3334 12.2491 26.9885 10.5152 26.3184 8.89757C25.6484 7.2799 24.6662 5.81004 23.4281 4.57193C22.19 3.33382 20.7201 2.35169 19.1025 1.68163C17.4848 1.01156 15.751 0.666687 14 0.666687ZM20.9445 19.4014C20.9445 20.25 20.25 20.9445 19.4014 20.9445H8.59863C7.75002 20.9445 7.05558 20.25 7.05558 19.4014V8.59863C7.05558 7.75002 7.75002 7.05558 8.59863 7.05558H19.4014C20.25 7.05558 20.9445 7.75002 20.9445 8.59863V19.4014Z" fill="white"/>
<path d="M18.1667 14C18.1667 15.1051 17.7277 16.1649 16.9463 16.9463C16.1649 17.7277 15.1051 18.1667 14 18.1667C12.895 18.1667 11.8351 17.7277 11.0537 16.9463C10.2723 16.1649 9.83335 15.1051 9.83335 14C9.83335 13.7625 9.85835 13.5306 9.90141 13.3056H8.44446V18.857C8.44446 19.2431 8.75696 19.5556 9.14307 19.5556H18.8584C19.0434 19.5552 19.2207 19.4814 19.3514 19.3505C19.4822 19.2195 19.5556 19.042 19.5556 18.857V13.3056H18.0986C18.1417 13.5306 18.1667 13.7625 18.1667 14ZM14 16.7778C14.3649 16.7777 14.7262 16.7057 15.0632 16.566C15.4003 16.4263 15.7066 16.2216 15.9645 15.9635C16.2224 15.7054 16.427 15.3991 16.5666 15.062C16.7061 14.7248 16.7779 14.3635 16.7778 13.9986C16.7777 13.6338 16.7057 13.2725 16.566 12.9354C16.4263 12.5983 16.2216 12.2921 15.9635 12.0342C15.7054 11.7762 15.3991 11.5716 15.062 11.4321C14.7248 11.2925 14.3635 11.2208 13.9986 11.2209C13.2617 11.221 12.5551 11.5139 12.0342 12.0351C11.5132 12.5563 11.2207 13.2631 11.2209 14C11.221 14.7369 11.5139 15.4436 12.0351 15.9645C12.5563 16.4854 13.2631 16.778 14 16.7778ZM17.3334 11.0834H18.9986C19.1093 11.0834 19.2154 11.0395 19.2938 10.9614C19.3721 10.8833 19.4163 10.7773 19.4167 10.6667V9.00141C19.4167 8.89053 19.3726 8.7842 19.2942 8.7058C19.2158 8.6274 19.1095 8.58335 18.9986 8.58335H17.3334C17.2225 8.58335 17.1161 8.6274 17.0377 8.7058C16.9593 8.7842 16.9153 8.89053 16.9153 9.00141V10.6667C16.9167 10.8959 17.1042 11.0834 17.3334 11.0834ZM14 0.666687C10.4638 0.666687 7.07241 2.07144 4.57193 4.57193C2.07144 7.07241 0.666687 10.4638 0.666687 14C0.666687 17.5362 2.07144 20.9276 4.57193 23.4281C7.07241 25.9286 10.4638 27.3334 14 27.3334C15.751 27.3334 17.4848 26.9885 19.1025 26.3184C20.7201 25.6484 22.19 24.6662 23.4281 23.4281C24.6662 22.19 25.6484 20.7201 26.3184 19.1025C26.9885 17.4848 27.3334 15.751 27.3334 14C27.3334 12.2491 26.9885 10.5152 26.3184 8.89757C25.6484 7.2799 24.6662 5.81004 23.4281 4.57193C22.19 3.33382 20.7201 2.35169 19.1025 1.68163C17.4848 1.01156 15.751 0.666687 14 0.666687ZM20.9445 19.4014C20.9445 20.25 20.25 20.9445 19.4014 20.9445H8.59863C7.75002 20.9445 7.05558 20.25 7.05558 19.4014V8.59863C7.05558 7.75002 7.75002 7.05558 8.59863 7.05558H19.4014C20.25 7.05558 20.9445 7.75002 20.9445 8.59863V19.4014Z" fill="#704A2C"/>
</svg>
