<svg width="28" height="28" viewBox="0 0 28 28" fill="none" xmlns="http://www.w3.org/2000/svg">
<path d="M14 0.666687C6.63613 0.666687 0.666687 6.63613 0.666687 14C0.666687 21.3639 6.63613 27.3334 14 27.3334C21.3639 27.3334 27.3334 21.3639 27.3334 14C27.3334 6.63613 21.3639 0.666687 14 0.666687ZM10.7361 19.5264H8.03613V10.8375H10.7361V19.5264ZM9.36946 9.77085C8.51669 9.77085 7.9653 9.16669 7.9653 8.41946C7.9653 7.65696 8.53335 7.07085 9.40419 7.07085C10.275 7.07085 10.8084 7.65696 10.825 8.41946C10.825 9.16669 10.275 9.77085 9.36946 9.77085ZM20.5972 19.5264H17.8972V14.7111C17.8972 13.5903 17.5056 12.8292 16.5292 12.8292C15.7834 12.8292 15.3403 13.3445 15.1445 13.8403C15.0722 14.0167 15.0542 14.2667 15.0542 14.5153V19.525H12.3528V13.6084C12.3528 12.5236 12.3181 11.6167 12.282 10.8361H14.6278L14.7514 12.0431H14.8056C15.1611 11.4764 16.032 10.6403 17.4889 10.6403C19.2653 10.6403 20.5972 11.8306 20.5972 14.3889V19.5264Z" fill="white"/>
<path d="M14 0.666687C6.63613 0.666687 0.666687 6.63613 0.666687 14C0.666687 21.3639 6.63613 27.3334 14 27.3334C21.3639 27.3334 27.3334 21.3639 27.3334 14C27.3334 6.63613 21.3639 0.666687 14 0.666687ZM10.7361 19.5264H8.03613V10.8375H10.7361V19.5264ZM9.36946 9.77085C8.51669 9.77085 7.9653 9.16669 7.9653 8.41946C7.9653 7.65696 8.53335 7.07085 9.40419 7.07085C10.275 7.07085 10.8084 7.65696 10.825 8.41946C10.825 9.16669 10.275 9.77085 9.36946 9.77085ZM20.5972 19.5264H17.8972V14.7111C17.8972 13.5903 17.5056 12.8292 16.5292 12.8292C15.7834 12.8292 15.3403 13.3445 15.1445 13.8403C15.0722 14.0167 15.0542 14.2667 15.0542 14.5153V19.525H12.3528V13.6084C12.3528 12.5236 12.3181 11.6167 12.282 10.8361H14.6278L14.7514 12.0431H14.8056C15.1611 11.4764 16.032 10.6403 17.4889 10.6403C19.2653 10.6403 20.5972 11.8306 20.5972 14.3889V19.5264Z" fill="#704A2C"/>
</svg>
