<svg width="32" height="33" viewBox="0 0 32 33" fill="none" xmlns="http://www.w3.org/2000/svg">
<g clip-path="url(#clip0_1_209)">
<path d="M27.4286 16.1198C27.4286 9.83412 22.2857 4.69127 16 4.69127C9.71427 4.69127 4.57141 9.83412 4.57141 16.1198C4.57141 22.4055 9.71427 27.5484 16 27.5484C22.2857 27.5484 27.4286 22.4055 27.4286 16.1198Z" fill="white"/>
<path d="M27.4286 16.1198C27.4286 9.83412 22.2857 4.69127 16 4.69127C9.71427 4.69127 4.57141 9.83412 4.57141 16.1198C4.57141 22.4055 9.71427 27.5484 16 27.5484C22.2857 27.5484 27.4286 22.4055 27.4286 16.1198Z" fill="#704A2C"/>
<path d="M25.7143 24.977L27.7143 26.977C30.2857 24.4056 31.7143 20.6913 32 16.6913H29.1429C28.8571 19.8342 27.7143 22.6913 25.7143 24.977ZM29.1429 15.5484H32C31.7143 11.5484 30.2857 8.11988 27.7143 5.26274L25.7143 7.26273C27.7143 9.54844 28.8571 12.4056 29.1429 15.5484ZM26.8571 4.40558C24.2857 1.83415 20.5714 0.405587 16.5714 0.119873V2.97697C19.7143 3.26269 22.5714 4.40557 24.8571 6.40557L26.8571 4.40558ZM15.4286 2.97697V0.119873C11.4286 0.405587 8 1.83415 5.14286 4.40558L7.14286 6.40557C9.42857 4.40557 12.2857 3.26269 15.4286 2.97697ZM6.28571 7.26273L4.28571 5.26274C1.71429 7.83417 0.285714 11.5484 0 15.5484H2.85714C3.14286 12.4056 4.28571 9.54844 6.28571 7.26273ZM2.85714 16.6913H0C0.285714 20.6913 1.71429 24.1198 4.28571 26.977L6.28571 24.977C4.28571 22.6913 3.14286 19.8342 2.85714 16.6913ZM5.14286 27.8341C7.71429 30.4056 11.4286 31.8341 15.4286 32.1198V29.2627C12.2857 28.977 9.42857 27.8342 7.14286 25.8341L5.14286 27.8341ZM16.5714 29.2627V32.1198C20.5714 31.8341 24 30.4056 26.8571 27.8341L24.8571 25.8341C22.5714 27.8342 19.7143 28.977 16.5714 29.2627Z" fill="#B9A55E"/>
<path d="M10 19.2628C9.14286 20.1199 8.57143 20.9771 8 21.8342C9.71429 24.1199 12.5714 25.8342 15.7143 25.8342C18.8571 25.8342 21.4286 24.4056 23.4286 22.1199C22.8571 20.977 22 19.8342 21.1429 18.9771L20.5714 22.4056L17.4286 21.2628L15.7143 24.1199L14 21.2628L10.5714 22.4056L10.2857 18.9771L10 19.2628Z" fill="white"/>
<path d="M20.8571 12.4056C20.8571 9.54846 18.5714 7.26274 15.7143 7.26274C12.8571 7.26274 10.5714 9.54846 10.5714 12.4056C10.5714 15.2627 12.8571 17.5484 15.7143 17.5484C18.5714 17.5484 20.8571 15.2627 20.8571 12.4056Z" fill="white"/>
<path d="M15.1429 20.1198V18.6913L11.1429 17.5484L11.7143 20.977L15.1429 20.1198Z" fill="white"/>
<path d="M19.4286 20.977L20.2857 17.5484L16 18.6913V20.1198L19.4286 20.977Z" fill="white"/>
</g>
<defs>
<clipPath id="clip0_1_209">
<rect y="0.119873" width="32" height="32" rx="7" fill="white"/>
</clipPath>
</defs>
</svg>
