<svg width="32" height="32" viewBox="0 0 32 32" fill="none" xmlns="http://www.w3.org/2000/svg">
<g clip-path="url(#clip0_1_141)">
<path d="M27.4286 16C27.4286 9.71433 22.2857 4.57147 16 4.57147C9.71427 4.57147 4.57141 9.71433 4.57141 16C4.57141 22.2858 9.71427 27.4286 16 27.4286C22.2857 27.4286 27.4286 22.2858 27.4286 16Z" fill="white"/>
<path d="M27.4286 16C27.4286 9.71433 22.2857 4.57147 16 4.57147C9.71427 4.57147 4.57141 9.71433 4.57141 16C4.57141 22.2858 9.71427 27.4286 16 27.4286C22.2857 27.4286 27.4286 22.2858 27.4286 16Z" fill="#704A2C"/>
<path d="M24.0116 13.6321L16.1672 8.15162C15.877 7.94946 15.4947 7.94946 15.2044 8.15162L7.36006 13.6321C7.05781 13.8402 6.92771 14.2206 7.0398 14.5748C7.15189 14.9211 7.47215 15.1613 7.84045 15.1613H9.64992L9.89011 22.2551C10.1163 23.44 11.1531 24.3007 12.3601 24.3007H13.9374V20.1954C13.9374 19.8511 14.2176 19.5709 14.5619 19.5709H16.8037C17.148 19.5709 17.4282 19.8511 17.4282 20.1954V24.3007H19.0055C20.2125 24.3007 21.4355 23.4621 21.4755 22.2551L21.7157 15.1613H23.5252C23.8955 15.1613 24.2157 14.9211 24.3258 14.5748C24.4379 14.2226 24.3078 13.8402 24.0056 13.6321H24.0116Z" fill="white"/>
<path d="M25.7143 24.8571L27.7143 26.8571C30.2857 24.2857 31.7143 20.5714 32 16.5714H29.1429C28.8571 19.7143 27.7143 22.5714 25.7143 24.8571ZM29.1429 15.4286H32C31.7143 11.4286 30.2857 8 27.7143 5.14286L25.7143 7.14286C27.7143 9.42857 28.8571 12.2857 29.1429 15.4286ZM26.8571 4.28571C24.2857 1.71429 20.5714 0.285714 16.5714 0V2.85714C19.7143 3.14286 22.5714 4.28571 24.8571 6.28571L26.8571 4.28571ZM15.4286 2.85714V0C11.4286 0.285714 8 1.71429 5.14286 4.28571L7.14286 6.28571C9.42857 4.28571 12.2857 3.14286 15.4286 2.85714ZM6.28571 7.14286L4.28571 5.14286C1.71429 7.71429 0.285714 11.4286 0 15.4286H2.85714C3.14286 12.2857 4.28571 9.42857 6.28571 7.14286ZM2.85714 16.5714H0C0.285714 20.5714 1.71429 24 4.28571 26.8571L6.28571 24.8571C4.28571 22.5714 3.14286 19.7143 2.85714 16.5714ZM5.14286 27.7143C7.71429 30.2857 11.4286 31.7143 15.4286 32V29.1429C12.2857 28.8571 9.42857 27.7143 7.14286 25.7143L5.14286 27.7143ZM16.5714 29.1429V32C20.5714 31.7143 24 30.2857 26.8571 27.7143L24.8571 25.7143C22.5714 27.7143 19.7143 28.8571 16.5714 29.1429Z" fill="#B9A55E"/>
</g>
<defs>
<clipPath id="clip0_1_141">
<rect width="32" height="32" rx="16" fill="white"/>
</clipPath>
</defs>
</svg>
