<svg width="32" height="33" viewBox="0 0 32 33" fill="none" xmlns="http://www.w3.org/2000/svg">
<g clip-path="url(#clip0_1_221)">
<path d="M27.4286 16.1198C27.4286 9.83412 22.2857 4.69127 16 4.69127C9.71427 4.69127 4.57141 9.83412 4.57141 16.1198C4.57141 22.4055 9.71427 27.5484 16 27.5484C22.2857 27.5484 27.4286 22.4055 27.4286 16.1198Z" fill="white"/>
<path d="M27.4286 16.1198C27.4286 9.83412 22.2857 4.69127 16 4.69127C9.71427 4.69127 4.57141 9.83412 4.57141 16.1198C4.57141 22.4055 9.71427 27.5484 16 27.5484C22.2857 27.5484 27.4286 22.4055 27.4286 16.1198Z" fill="#704A2C"/>
<path d="M24.446 16.5418L22.2682 14.364V20.7212L24.446 18.5414C24.9984 17.991 24.9984 17.0902 24.446 16.5418Z" fill="white"/>
<path d="M16.1652 24.8226C16.7217 25.369 17.6104 25.371 18.1688 24.8226L18.393 24.6004H15.943L16.1672 24.8226H16.1652Z" fill="white"/>
<path d="M15.4006 7.4945C14.8481 6.94405 13.9494 6.94405 13.4009 7.4945L13.1768 7.71668H15.6248L15.4006 7.4945Z" fill="white"/>
<path d="M7.11985 15.7753L9.29761 17.951V11.5939L7.11985 13.7716C6.5674 14.3241 6.5674 15.2228 7.11985 15.7753Z" fill="white"/>
<path d="M20.0304 8.53735H11.5334C10.7528 8.53735 10.1183 9.17187 10.1183 9.9505V22.3606C10.1183 23.1412 10.7548 23.7777 11.5334 23.7777H20.0304C20.811 23.7777 21.4455 23.1412 21.4455 22.3606V9.9505C21.4455 9.17187 20.809 8.53735 20.0304 8.53735Z" fill="white"/>
<path fill-rule="evenodd" clip-rule="evenodd" d="M12.21 9.62427C12.6303 9.62427 12.9746 9.96855 12.9746 10.3909C12.9746 10.8152 12.6303 11.1555 12.21 11.1555C11.7856 11.1555 11.4434 10.8132 11.4434 10.3909C11.4434 9.96855 11.7856 9.62427 12.21 9.62427ZM16.4134 17.5987L17.5863 19.7605H13.9794L15.1524 17.5087C13.9794 18.5015 12.1779 17.6888 12.1779 16.1556C12.1779 15.1628 12.9886 14.3521 13.9794 14.3521C13.9794 13.3613 14.7901 12.5506 15.7829 12.5506C16.7757 12.5506 17.5863 13.3613 17.5863 14.3521C18.5772 14.3521 19.3878 15.1628 19.3878 16.1556C19.3878 17.6868 17.6764 18.4995 16.4134 17.5987ZM19.636 21.1737C20.0564 21.1737 20.4006 21.5159 20.4006 21.9383C20.4006 22.3626 20.0564 22.7049 19.636 22.7049C19.2117 22.7049 18.8694 22.3626 18.8694 21.9383C18.8694 21.5159 19.2117 21.1737 19.636 21.1737Z" fill="white"/>
<path fill-rule="evenodd" clip-rule="evenodd" d="M12.21 9.62427C12.6303 9.62427 12.9746 9.96855 12.9746 10.3909C12.9746 10.8152 12.6303 11.1555 12.21 11.1555C11.7856 11.1555 11.4434 10.8132 11.4434 10.3909C11.4434 9.96855 11.7856 9.62427 12.21 9.62427ZM16.4134 17.5987L17.5863 19.7605H13.9794L15.1524 17.5087C13.9794 18.5015 12.1779 17.6888 12.1779 16.1556C12.1779 15.1628 12.9886 14.3521 13.9794 14.3521C13.9794 13.3613 14.7901 12.5506 15.7829 12.5506C16.7757 12.5506 17.5863 13.3613 17.5863 14.3521C18.5772 14.3521 19.3878 15.1628 19.3878 16.1556C19.3878 17.6868 17.6764 18.4995 16.4134 17.5987ZM19.636 21.1737C20.0564 21.1737 20.4006 21.5159 20.4006 21.9383C20.4006 22.3626 20.0564 22.7049 19.636 22.7049C19.2117 22.7049 18.8694 22.3626 18.8694 21.9383C18.8694 21.5159 19.2117 21.1737 19.636 21.1737Z" fill="#704A2C"/>
<path d="M25.7143 24.977L27.7143 26.977C30.2857 24.4056 31.7143 20.6913 32 16.6913H29.1429C28.8571 19.8342 27.7143 22.6913 25.7143 24.977ZM29.1429 15.5484H32C31.7143 11.5484 30.2857 8.11988 27.7143 5.26274L25.7143 7.26273C27.7143 9.54844 28.8571 12.4056 29.1429 15.5484ZM26.8571 4.40558C24.2857 1.83415 20.5714 0.405587 16.5714 0.119873V2.97703C19.7143 3.26274 22.5714 4.40557 24.8571 6.40557L26.8571 4.40558ZM15.4286 2.97703V0.119873C11.4286 0.405587 8 1.83415 5.14286 4.40558L7.14286 6.40557C9.42857 4.40557 12.2857 3.26274 15.4286 2.97703ZM6.28571 7.26273L4.28571 5.26274C1.71429 7.83417 0.285714 11.5484 0 15.5484H2.85714C3.14286 12.4056 4.28571 9.54844 6.28571 7.26273ZM2.85714 16.6913H0C0.285714 20.6913 1.71429 24.1199 4.28571 26.977L6.28571 24.977C4.28571 22.6913 3.14286 19.8342 2.85714 16.6913ZM5.14286 27.8341C7.71429 30.4056 11.4286 31.8341 15.4286 32.1198V29.2627C12.2857 28.977 9.42857 27.8342 7.14286 25.8341L5.14286 27.8341ZM16.5714 29.2627V32.1198C20.5714 31.8341 24 30.4056 26.8571 27.8341L24.8571 25.8341C22.5714 27.8342 19.7143 28.977 16.5714 29.2627Z" fill="#B9A55E"/>
</g>
<defs>
<clipPath id="clip0_1_221">
<rect y="0.119873" width="32" height="32" rx="7" fill="white"/>
</clipPath>
</defs>
</svg>
