<svg width="32" height="33" viewBox="0 0 32 33" fill="none" xmlns="http://www.w3.org/2000/svg">
<g clip-path="url(#clip0_1_150)">
<path d="M27.4923 16.1189C27.4923 9.78575 22.3321 4.62756 16.001 4.62756C9.66783 4.62756 4.50964 9.78776 4.50964 16.1189C4.50964 22.45 9.66983 27.6102 16.001 27.6102C22.3341 27.6102 27.4923 22.45 27.4923 16.1189Z" fill="white"/>
<path d="M27.4923 16.1189C27.4923 9.78575 22.3321 4.62756 16.001 4.62756C9.66783 4.62756 4.50964 9.78776 4.50964 16.1189C4.50964 22.45 9.66983 27.6102 16.001 27.6102C22.3341 27.6102 27.4923 22.45 27.4923 16.1189Z" fill="#704A2C"/>
<path d="M25.7669 24.922L27.7846 26.9357C30.2706 24.2435 31.8199 20.6886 32 16.7794H29.1417C28.9856 19.8999 27.7345 22.7403 25.7669 24.92V24.922ZM29.1417 15.4343H32C31.8479 11.5231 30.2706 7.99427 27.7846 5.27606L25.7629 7.30972C27.7285 9.48548 28.9815 12.3198 29.1417 15.4343ZM26.8178 4.3353C24.1256 1.84928 20.5707 0.271997 16.6856 0.119873V2.9782C19.7981 3.13833 22.6264 4.39134 24.8042 6.35294L26.8178 4.3353ZM15.3144 2.9782V0.119873C11.4293 0.271997 7.8744 1.84928 5.18221 4.3353L7.19585 6.35294C9.37161 4.39134 12.2019 3.13833 15.3144 2.9782ZM6.23306 7.31772L4.21543 5.30409C1.7294 7.99627 0.152124 11.5512 0 15.4363H2.85832C3.01845 12.3258 4.27147 9.49549 6.23306 7.31772ZM2.85832 16.8054H0C0.152124 20.6906 1.7294 24.2455 4.21543 26.9377L6.23306 24.924C4.27147 22.7483 3.01845 19.918 2.85832 16.8054ZM5.18221 27.9044C7.8744 30.3905 11.4293 31.9397 15.3385 32.1199V29.2616C12.2219 29.1054 9.38362 27.8584 7.20385 25.8948L5.18221 27.9044ZM16.6856 29.2616V32.1199C20.5967 31.9677 24.1256 30.3905 26.8458 27.9044L24.8122 25.8828C22.6364 27.8504 19.8021 29.1014 16.6876 29.2616H16.6856Z" fill="#B9A55E"/>
<path d="M21.3373 15.034C22.22 14.3274 22.4262 13.0624 21.8377 12.0896C21.2473 11.1188 20.0403 10.7365 19.0114 11.1468L17.3621 8.38055C16.9778 7.73203 16.1551 7.52586 15.5086 7.90817C15.1823 8.08431 14.9762 8.37855 14.8901 8.73084C14.802 9.08513 14.8601 9.43941 15.0362 9.76368L14.742 10.3802C13.9353 12.0215 13.3508 13.1504 12.5342 14.1993L15.5286 19.3855C16.8237 19.1373 18.0386 19.1613 19.8061 19.1873C20.0743 19.1873 20.3365 19.1873 20.6308 19.1873C20.897 19.6277 21.3373 19.8639 21.8077 19.8639C22.0419 19.8639 22.2781 19.8038 22.5163 19.6877C22.8385 19.5096 23.0447 19.2154 23.1328 18.8631C23.2209 18.5108 23.1628 18.1565 22.9867 17.8322L21.3373 15.034ZM13.9453 19.952L14.2095 19.8058L11.5594 15.2121L8.96928 16.7714C8.70506 16.9175 8.52691 17.1837 8.43884 17.4779C8.41082 17.7141 8.41082 17.9203 8.46887 18.1265L7.93844 18.4487C7.5281 18.6849 7.41001 19.2134 7.6442 19.6277L8.55694 21.1569C8.73308 21.3931 8.9993 21.5412 9.29354 21.5412C9.44166 21.5412 9.58778 21.5112 9.7359 21.4232L10.2643 21.0989C10.4705 21.3371 10.7647 21.4812 11.089 21.4832C11.2651 21.4832 11.4413 21.4532 11.5894 21.3651L13.4729 24.5457C13.6511 24.868 13.9453 25.0761 14.3276 25.1642C14.4457 25.1942 14.5618 25.1942 14.6799 25.1942C14.9161 25.1942 15.1503 25.1342 15.3865 25.0161C15.7108 24.8399 15.9149 24.5157 16.005 24.1634C16.0931 23.8091 16.035 23.4268 15.8589 23.1305L13.9453 19.952Z" fill="white"/>
</g>
<defs>
<clipPath id="clip0_1_150">
<rect width="32" height="32" rx="7" transform="matrix(-1 0 0 1 32 0.119873)" fill="white"/>
</clipPath>
</defs>
</svg>
