<svg width="32" height="32" viewBox="0 0 32 32" fill="none" xmlns="http://www.w3.org/2000/svg">
<g clip-path="url(#clip0_14_5)">
<path d="M27.4285 16C27.4285 9.71429 22.2857 4.57141 16 4.57141C9.71426 4.57141 4.5714 9.71429 4.5714 16C4.5714 22.2857 9.71426 27.4286 16 27.4286C22.2857 27.4286 27.4285 22.2857 27.4285 16Z" fill="white"/>
<path d="M27.4285 16C27.4285 9.71429 22.2857 4.57141 16 4.57141C9.71426 4.57141 4.5714 9.71429 4.5714 16C4.5714 22.2857 9.71426 27.4286 16 27.4286C22.2857 27.4286 27.4285 22.2857 27.4285 16Z" fill="#704A2C"/>
<path d="M23.7458 12.9912C23.0543 12.9912 22.4917 13.5538 22.4917 14.2454C22.4917 14.7587 22.8016 15.201 23.2443 15.3948V17.9199C23.2443 18.0179 23.1644 18.0978 23.0664 18.0978L7.88076 18.0998V18.8779C7.88076 19.5847 8.45619 20.1602 9.16303 20.1602H19.9833C20.6145 20.1602 21.1405 19.7018 21.2465 19.1009H23.0664C23.7177 19.1009 24.2474 18.5709 24.2474 17.9199V15.3949C24.69 15.201 25 14.7587 25 14.2454C25 13.5538 24.4374 12.9912 23.7458 12.9912Z" fill="white"/>
<path d="M12.0613 15.7436C12.0613 15.4668 12.2856 15.2421 12.5628 15.2421C12.8397 15.2421 13.0643 15.4668 13.0643 15.7436V17.0968H15.9385V15.7436C15.9385 15.4668 16.1632 15.2421 16.44 15.2421C16.7172 15.2421 16.9416 15.4668 16.9416 15.7436V17.0968H21.2659V11.4344C21.2659 10.7275 20.6904 10.1521 19.9833 10.1521H16.9419V11.2582C16.9419 11.535 16.7172 11.7597 16.4404 11.7597C16.1635 11.7597 15.9388 11.535 15.9388 11.2582V10.1521H13.0643V11.2083C13.0643 11.4852 12.8397 11.7099 12.5628 11.7099C12.286 11.7099 12.0613 11.4852 12.0613 11.2083V10.1521H9.16303C8.45619 10.1521 7.88076 10.7275 7.88076 11.4344V17.0968H12.0613V15.7436ZM18.2131 12.3084H19.5561C19.742 12.3084 19.9126 12.4113 19.9995 12.5757C20.0864 12.7401 20.0752 12.939 19.9704 13.0926L19.8248 13.306C19.4668 13.8309 19.2776 14.4442 19.2776 15.0796C19.2776 15.3566 19.053 15.5811 18.7761 15.5811C18.4991 15.5811 18.2745 15.3566 18.2745 15.0796C18.2745 14.4628 18.4097 13.8619 18.6694 13.3115H18.2131C17.9361 13.3115 17.7116 13.0869 17.7116 12.81C17.7116 12.533 17.9361 12.3084 18.2131 12.3084ZM13.8085 12.2763H15.1515C15.3374 12.2763 15.5081 12.3792 15.5949 12.5435C15.6818 12.7079 15.6706 12.9069 15.5659 13.0604L15.4203 13.2738C15.0623 13.7988 14.8731 14.4121 14.8731 15.0475C14.8731 15.3245 14.6485 15.549 14.3715 15.549C14.0945 15.549 13.87 15.3245 13.87 15.0475C13.87 14.4307 14.0052 13.8297 14.2649 13.2794H13.8086C13.5316 13.2794 13.307 13.0548 13.307 12.7778C13.307 12.5008 13.5315 12.2763 13.8085 12.2763ZM11.1613 13.0926L11.0157 13.306C10.6577 13.8308 10.4685 14.4442 10.4685 15.0796C10.4685 15.3565 10.244 15.5811 9.96697 15.5811C9.68998 15.5811 9.46543 15.3565 9.46543 15.0796C9.46543 14.4628 9.60068 13.8618 9.86031 13.3115H9.40397C9.12699 13.3115 8.90243 13.0869 8.90243 12.8099C8.90243 12.5329 9.12699 12.3084 9.40397 12.3084H10.747C10.9329 12.3084 11.1036 12.4112 11.1904 12.5756C11.2773 12.74 11.2661 12.939 11.1613 13.0926Z" fill="white"/>
<path d="M20.7642 22.1188H19.4215V21.1547H9.72509V22.1188H8.3823C8.10532 22.1188 7.88076 22.3433 7.88076 22.6203C7.88076 22.8973 8.10532 23.1218 8.3823 23.1218H20.7642C21.0412 23.1218 21.2657 22.8973 21.2657 22.6203C21.2657 22.3433 21.0412 22.1188 20.7642 22.1188Z" fill="white"/>
<path d="M25.7143 24.8571L27.7143 26.8572C30.2857 24.2857 31.7143 20.5714 32 16.5714H29.1429C28.8571 19.7143 27.7143 22.5714 25.7143 24.8571V24.8571ZM29.1429 15.4286H32C31.7143 11.4286 30.2857 8.00001 27.7143 5.14287L25.7143 7.14286C27.7143 9.42857 28.8571 12.2857 29.1429 15.4286V15.4286ZM26.8571 4.2857C24.2857 1.71427 20.5714 0.285714 16.5714 0V2.85715C19.7143 3.14287 22.5714 4.28572 24.8571 6.28572L26.8571 4.2857V4.2857ZM15.4286 2.85715V0C11.4286 0.285714 8 1.71427 5.14286 4.2857L7.14286 6.28572C9.42857 4.28572 12.2857 3.14287 15.4286 2.85715V2.85715ZM6.28571 7.14286L4.28571 5.14287C1.71429 7.71429 0.285714 11.4286 0 15.4286H2.85714C3.14286 12.2857 4.28571 9.42857 6.28571 7.14286ZM2.85714 16.5714H0C0.285714 20.5714 1.71429 24 4.28571 26.8572L6.28571 24.8571C4.28571 22.5714 3.14286 19.7143 2.85714 16.5714ZM5.14286 27.7143C7.71429 30.2857 11.4286 31.7143 15.4286 32V29.1429C12.2857 28.8572 9.42857 27.7143 7.14286 25.7143L5.14286 27.7143V27.7143ZM16.5714 29.1429V32C20.5714 31.7143 24 30.2857 26.8571 27.7143L24.8571 25.7143C22.5714 27.7143 19.7143 28.8572 16.5714 29.1429V29.1429Z" fill="#B9A55E"/>
</g>
<defs>
<clipPath id="clip0_14_5">
<rect width="32" height="32" rx="7" fill="white"/>
</clipPath>
</defs>
</svg>
