<svg width="32" height="33" viewBox="0 0 32 33" fill="none" xmlns="http://www.w3.org/2000/svg">
<g clip-path="url(#clip0_1_236)">
<path d="M27.4286 16.1199C27.4286 9.83417 22.2857 4.69127 16 4.69127C9.71427 4.69127 4.57141 9.83417 4.57141 16.1199C4.57141 22.4056 9.71427 27.5484 16 27.5484C22.2857 27.5484 27.4286 22.4056 27.4286 16.1199Z" fill="white"/>
<path d="M27.4286 16.1199C27.4286 9.83417 22.2857 4.69127 16 4.69127C9.71427 4.69127 4.57141 9.83417 4.57141 16.1199C4.57141 22.4056 9.71427 27.5484 16 27.5484C22.2857 27.5484 27.4286 22.4056 27.4286 16.1199Z" fill="#704A2C"/>
<path fill-rule="evenodd" clip-rule="evenodd" d="M10.6228 13.3617L18.7795 8.65185C19.2118 8.40164 19.7262 8.33359 20.2086 8.46369C20.691 8.5938 21.1033 8.90805 21.3536 9.34241C22.3183 11.0138 24.1558 14.1964 25.1206 15.8677C25.3708 16.3001 25.4389 16.8145 25.3088 17.2969C25.1787 17.7793 24.8624 18.1896 24.4321 18.4398L16.2754 23.1496L15.3327 21.5183C15.1585 21.2181 14.7742 21.116 14.476 21.2881C14.1757 21.4623 14.0716 21.8446 14.2458 22.1448L15.1865 23.7761L14.0316 24.4427C13.5993 24.6929 13.0848 24.7609 12.6024 24.6308C12.1201 24.5007 11.7097 24.1865 11.4595 23.7541C10.9811 22.9234 10.4027 21.9226 10.4027 21.9226C10.2285 21.6224 10.3326 21.2381 10.6328 21.0659C10.6328 21.0659 10.841 20.9458 11.1172 20.7857C11.3374 20.6576 11.4996 20.4494 11.5656 20.2012C11.6317 19.955 11.5976 19.6928 11.4695 19.4726C11.4695 19.4726 11.4695 19.4726 11.4695 19.4706C11.3414 19.2505 11.1312 19.0883 10.885 19.0223C10.6388 18.9562 10.3766 18.9902 10.1565 19.1184C9.87823 19.2785 9.67006 19.3986 9.67006 19.3986C9.36981 19.5727 8.98551 19.4686 8.81337 19.1684C8.81337 19.1684 8.19486 18.0955 7.69245 17.2288C7.44225 16.7965 7.37419 16.282 7.5043 15.7997C7.6344 15.3173 7.94866 14.9049 8.38301 14.6547L9.53996 13.9882L10.4807 15.6195C10.6549 15.9198 11.0392 16.0218 11.3394 15.8497C11.6397 15.6756 11.7417 15.2912 11.5696 14.991L10.6268 13.3597L10.6228 13.3617Z" fill="white"/>
<path d="M20.3287 19.5966L19.7943 18.6718C19.416 18.86 19.0277 19.0041 18.6294 19.1022C18.1209 19.2263 17.6766 19.2623 17.2923 19.2123L17.1622 17.9092C17.5204 17.9432 17.9068 17.9192 18.3211 17.8331C18.6133 17.7731 18.8916 17.683 19.1558 17.5629L18.3351 16.1418C18.0969 16.2138 17.8527 16.2779 17.6025 16.3319C17.3123 16.396 17.0281 16.422 16.7518 16.416C16.4776 16.41 16.2154 16.3419 15.9712 16.2118C15.727 16.0817 15.5128 15.8595 15.3307 15.5413C15.1345 15.201 15.0485 14.8407 15.0705 14.4544C15.0925 14.0681 15.2406 13.6858 15.5128 13.3035C15.699 13.0452 15.9532 12.799 16.2694 12.5669L15.727 11.6261L16.5737 11.1377L17.1101 12.0644C17.3783 11.9343 17.6546 11.8283 17.9428 11.7442C18.3551 11.6221 18.7494 11.57 19.1278 11.5861L19.3059 12.8731C18.9376 12.8751 18.5933 12.9171 18.2731 13.0012C18.0909 13.0492 17.9168 13.1073 17.7526 13.1774L18.5893 14.6265C18.8235 14.5565 19.0597 14.4944 19.2999 14.4364C19.5881 14.3663 19.8704 14.3363 20.1446 14.3443C20.4208 14.3503 20.681 14.4184 20.9252 14.5485C21.1714 14.6786 21.3816 14.8988 21.5617 15.211C21.7539 15.5433 21.836 15.9036 21.8099 16.2879C21.7839 16.6722 21.6338 17.0545 21.3616 17.4388C21.1814 17.691 20.9372 17.9332 20.631 18.1614L21.1754 19.1062L20.3287 19.5946V19.5966ZM17.6185 14.9028L16.922 13.6958C16.8739 13.7398 16.8319 13.7838 16.7959 13.8299C16.6618 13.99 16.5877 14.1401 16.5717 14.2823C16.5557 14.4244 16.5857 14.5605 16.6597 14.6886C16.7478 14.8407 16.8799 14.9288 17.0601 14.9488C17.2222 14.9688 17.4104 14.9528 17.6225 14.9028H17.6185ZM19.3059 15.8695L19.9825 17.0425L20.0865 16.9384C20.2227 16.7883 20.3007 16.6422 20.3247 16.5001C20.3488 16.3579 20.3247 16.2258 20.2527 16.0997C20.1606 15.9416 20.0265 15.8515 19.8483 15.8315C19.6902 15.8115 19.5081 15.8235 19.3039 15.8675L19.3059 15.8695Z" fill="white"/>
<path d="M20.3287 19.5966L19.7943 18.6718C19.416 18.86 19.0277 19.0041 18.6294 19.1022C18.1209 19.2263 17.6766 19.2623 17.2923 19.2123L17.1622 17.9092C17.5204 17.9432 17.9068 17.9192 18.3211 17.8331C18.6133 17.7731 18.8916 17.683 19.1558 17.5629L18.3351 16.1418C18.0969 16.2138 17.8527 16.2779 17.6025 16.3319C17.3123 16.396 17.0281 16.422 16.7518 16.416C16.4776 16.41 16.2154 16.3419 15.9712 16.2118C15.727 16.0817 15.5128 15.8595 15.3307 15.5413C15.1345 15.201 15.0485 14.8407 15.0705 14.4544C15.0925 14.0681 15.2406 13.6858 15.5128 13.3035C15.699 13.0452 15.9532 12.799 16.2694 12.5669L15.727 11.6261L16.5737 11.1377L17.1101 12.0644C17.3783 11.9343 17.6546 11.8283 17.9428 11.7442C18.3551 11.6221 18.7494 11.57 19.1278 11.5861L19.3059 12.8731C18.9376 12.8751 18.5933 12.9171 18.2731 13.0012C18.0909 13.0492 17.9168 13.1073 17.7526 13.1774L18.5893 14.6265C18.8235 14.5565 19.0597 14.4944 19.2999 14.4364C19.5881 14.3663 19.8704 14.3363 20.1446 14.3443C20.4208 14.3503 20.681 14.4184 20.9252 14.5485C21.1714 14.6786 21.3816 14.8988 21.5617 15.211C21.7539 15.5433 21.836 15.9036 21.8099 16.2879C21.7839 16.6722 21.6338 17.0545 21.3616 17.4388C21.1814 17.691 20.9372 17.9332 20.631 18.1614L21.1754 19.1062L20.3287 19.5946V19.5966ZM17.6185 14.9028L16.922 13.6958C16.8739 13.7398 16.8319 13.7838 16.7959 13.8299C16.6618 13.99 16.5877 14.1401 16.5717 14.2823C16.5557 14.4244 16.5857 14.5605 16.6597 14.6886C16.7478 14.8407 16.8799 14.9288 17.0601 14.9488C17.2222 14.9688 17.4104 14.9528 17.6225 14.9028H17.6185ZM19.3059 15.8695L19.9825 17.0425L20.0865 16.9384C20.2227 16.7883 20.3007 16.6422 20.3247 16.5001C20.3488 16.3579 20.3247 16.2258 20.2527 16.0997C20.1606 15.9416 20.0265 15.8515 19.8483 15.8315C19.6902 15.8115 19.5081 15.8235 19.3039 15.8675L19.3059 15.8695Z" fill="#704A2C"/>
<path d="M25.7143 24.977L27.7143 26.977C30.2857 24.4056 31.7143 20.6913 32 16.6913H29.1429C28.8571 19.8342 27.7143 22.6913 25.7143 24.977ZM29.1429 15.5485H32C31.7143 11.5485 30.2857 8.11988 27.7143 5.26274L25.7143 7.26273C27.7143 9.54844 28.8571 12.4056 29.1429 15.5485ZM26.8571 4.40563C24.2857 1.8342 20.5714 0.405587 16.5714 0.119873V2.97703C19.7143 3.26274 22.5714 4.40562 24.8571 6.40562L26.8571 4.40563ZM15.4286 2.97703V0.119873C11.4286 0.405587 8 1.8342 5.14286 4.40563L7.14286 6.40562C9.42857 4.40562 12.2857 3.26274 15.4286 2.97703ZM6.28571 7.26273L4.28571 5.26274C1.71429 7.83417 0.285714 11.5485 0 15.5485H2.85714C3.14286 12.4056 4.28571 9.54844 6.28571 7.26273ZM2.85714 16.6913H0C0.285714 20.6913 1.71429 24.1199 4.28571 26.977L6.28571 24.977C4.28571 22.6913 3.14286 19.8342 2.85714 16.6913ZM5.14286 27.8342C7.71429 30.4056 11.4286 31.8342 15.4286 32.1199V29.2627C12.2857 28.977 9.42857 27.8342 7.14286 25.8342L5.14286 27.8342ZM16.5714 29.2627V32.1199C20.5714 31.8342 24 30.4056 26.8571 27.8342L24.8571 25.8342C22.5714 27.8342 19.7143 28.977 16.5714 29.2627Z" fill="#B9A55E"/>
</g>
<defs>
<clipPath id="clip0_1_236">
<rect y="0.119873" width="32" height="32" rx="7" fill="white"/>
</clipPath>
</defs>
</svg>
