<svg width="78" height="78" viewBox="0 0 78 78" fill="none" xmlns="http://www.w3.org/2000/svg">
<path d="M45.9481 15.9746C48.7371 15.9746 51.5957 16.0442 54.4544 16.0442C67.6322 16.0442 77.1844 25.3706 77.1844 38.3163V54.9508C77.1844 67.8965 67.5625 77.223 54.4544 77.223C49.1554 77.3622 43.9261 77.3622 38.6271 77.3622C33.3281 77.3622 27.9593 77.2926 22.73 77.223C9.55222 77.223 3.8147e-05 67.8965 3.8147e-05 54.9508V38.3163C3.8147e-05 25.3706 9.62194 16.0442 22.7998 16.0442C25.3098 15.9746 27.8199 15.9746 30.3299 15.9746H46.0178H45.9481ZM23.497 32.5395C21.1264 32.5395 19.2438 34.4187 19.2438 36.7155V42.562H13.2476C10.9467 42.562 8.99442 44.4412 8.99442 46.738C8.99442 49.0348 10.9467 50.914 13.2476 50.914H19.2438V56.7605C19.2438 59.0573 21.1264 60.9365 23.497 60.9365C25.7979 60.9365 27.7502 59.0573 27.7502 56.7605V50.914H33.6767C35.9776 50.914 37.9298 49.1044 37.9298 46.738C37.9298 44.4412 36.0473 42.562 33.6767 42.562H27.7502V36.7155C27.7502 34.4187 25.7979 32.5395 23.497 32.5395ZM52.4324 33.1659H51.8746C49.504 33.1659 47.6215 35.0451 47.6215 37.3419C47.6215 39.6387 49.504 41.518 51.8746 41.518H52.4324C54.7333 41.518 56.6856 39.7083 56.6856 37.3419C56.6856 35.0451 54.7333 33.1659 52.4324 33.1659ZM62.1241 52.2364H61.5663C59.1956 52.2364 57.3131 54.1156 57.3131 56.4125C57.3131 58.7093 59.1956 60.5885 61.5663 60.5885H62.1241C64.4249 60.5885 66.3772 58.7789 66.3772 56.4125C66.3772 54.1156 64.4947 52.2364 62.1241 52.2364Z" fill="white"/>
<path opacity="0.6" d="M22.8183 0.314489C24.422 0.314489 25.677 1.5673 25.677 3.09851C25.677 4.21211 26.6532 5.11692 27.7687 5.11692H31.5338C37.2512 5.11692 41.9227 9.71055 41.9227 15.2786V15.9746L36.2053 15.905V15.2786C36.2053 12.7034 34.0439 10.6154 31.4641 10.6154H27.699C23.4459 10.6154 19.9597 7.20493 19.9597 3.02891C19.9597 1.4977 21.2147 0.244888 22.8183 0.244888V0.314489Z" fill="white"/>
</svg>
