<svg width="24" height="24" viewBox="0 0 24 24" fill="none" xmlns="http://www.w3.org/2000/svg">
<g clip-path="url(#clip0_244_1506)">
<path d="M24 12C24 5.38652 18.6114 0 12 0C5.38652 0 0 5.38861 0 12C0 18.6114 5.38861 24 12 24C18.6135 24 24 18.6114 24 12Z" fill="white"/>
<path d="M24 12C24 5.38652 18.6114 0 12 0C5.38652 0 0 5.38861 0 12C0 18.6114 5.38861 24 12 24C18.6135 24 24 18.6114 24 12Z" fill="#704A2C"/>
<path d="M16.6976 5.33119C16.6518 5.30313 16.5999 5.28671 16.5463 5.28336C16.4928 5.28001 16.4392 5.28984 16.3904 5.31199L15.392 5.78559L14.3936 5.31199C14.3511 5.28989 14.3039 5.27835 14.256 5.27835C14.208 5.27835 14.1609 5.28989 14.1184 5.31199L13.1264 5.78559L12.1344 5.31199C12.0919 5.28989 12.0447 5.27835 11.9968 5.27835C11.9488 5.27835 11.9017 5.28989 11.8592 5.31199L10.8608 5.78559L9.86875 5.31199C9.82625 5.28989 9.77905 5.27835 9.73115 5.27835C9.68325 5.27835 9.63605 5.28989 9.59355 5.31199L8.60155 5.78559L7.60955 5.31199C7.56108 5.28827 7.50727 5.27756 7.45341 5.28093C7.39955 5.28429 7.34749 5.30162 7.30235 5.33119C7.25729 5.3601 7.2202 5.39986 7.19448 5.44682C7.16876 5.49378 7.15524 5.54645 7.15515 5.59999V18.4C7.15524 18.4535 7.16876 18.5062 7.19448 18.5532C7.2202 18.6001 7.25729 18.6399 7.30235 18.6688C7.34749 18.6984 7.39955 18.7157 7.45341 18.7191C7.50727 18.7224 7.56108 18.7117 7.60955 18.688L8.60155 18.2144L9.59355 18.688C9.63774 18.7084 9.6857 18.7193 9.73435 18.72C9.78095 18.7192 9.82682 18.7083 9.86875 18.688L10.8608 18.2144L11.8592 18.688C11.9017 18.7101 11.9488 18.7216 11.9968 18.7216C12.0447 18.7216 12.0919 18.7101 12.1344 18.688L13.1264 18.2144L14.1184 18.688C14.1609 18.7101 14.208 18.7216 14.256 18.7216C14.3039 18.7216 14.3511 18.7101 14.3936 18.688L15.392 18.2144L16.3904 18.688C16.4388 18.7117 16.4926 18.7224 16.5465 18.7191C16.6004 18.7157 16.6524 18.6984 16.6976 18.6688C16.7426 18.6399 16.7797 18.6001 16.8054 18.5532C16.8311 18.5062 16.8447 18.4535 16.8448 18.4V5.59999C16.8447 5.54645 16.8311 5.49378 16.8054 5.44682C16.7797 5.39986 16.7426 5.3601 16.6976 5.33119ZM10.2528 10.7776H12.9792L12.1408 9.93919C12.1104 9.91032 12.0862 9.87557 12.0697 9.83706C12.0532 9.79855 12.0447 9.75709 12.0447 9.71519C12.0447 9.67329 12.0532 9.63183 12.0697 9.59332C12.0862 9.55481 12.1104 9.52007 12.1408 9.49119C12.1705 9.4612 12.2059 9.43739 12.2449 9.42114C12.2839 9.4049 12.3257 9.39653 12.368 9.39653C12.4102 9.39653 12.452 9.4049 12.491 9.42114C12.53 9.43739 12.5654 9.4612 12.5952 9.49119L13.9776 10.8736C14.0218 10.9187 14.0517 10.9759 14.0634 11.038C14.0752 11.1001 14.0683 11.1642 14.0437 11.2224C14.0191 11.2806 13.9777 11.3301 13.925 11.3649C13.8722 11.3996 13.8103 11.418 13.7472 11.4176H10.2528C10.1679 11.4176 10.0865 11.3839 10.0265 11.3239C9.96647 11.2639 9.93275 11.1825 9.93275 11.0976C9.93275 11.0127 9.96647 10.9313 10.0265 10.8713C10.0865 10.8113 10.1679 10.7776 10.2528 10.7776ZM13.7472 13.2224H11.0208L11.8592 14.0608C11.8895 14.0897 11.9137 14.1244 11.9302 14.1629C11.9467 14.2014 11.9552 14.2429 11.9552 14.2848C11.9552 14.3267 11.9467 14.3682 11.9302 14.4067C11.9137 14.4452 11.8895 14.4799 11.8592 14.5088C11.8001 14.5691 11.7196 14.6036 11.6352 14.6048C11.5923 14.6048 11.5499 14.5963 11.5104 14.5798C11.4708 14.5633 11.4349 14.5392 11.4048 14.5088L10.0224 13.1264C9.97813 13.0813 9.94824 13.0241 9.93647 12.962C9.9247 12.8999 9.93157 12.8358 9.95621 12.7776C9.98085 12.7194 10.0222 12.6698 10.0749 12.6351C10.1277 12.6004 10.1896 12.582 10.2528 12.5824H13.7472C13.832 12.5824 13.9134 12.6161 13.9734 12.6761C14.0334 12.7361 14.0672 12.8175 14.0672 12.9024C14.0672 12.9873 14.0334 13.0687 13.9734 13.1287C13.9134 13.1887 13.832 13.2224 13.7472 13.2224Z" fill="white"/>
</g>
<defs>
<clipPath id="clip0_244_1506">
<rect width="24" height="24" fill="white"/>
</clipPath>
</defs>
</svg>
