<svg width="26" height="25" viewBox="0 0 26 25" fill="none" xmlns="http://www.w3.org/2000/svg">
<path d="M18.1563 11.5625C18.1563 12.5823 17.8538 13.5792 17.2873 14.4272C16.7207 15.2751 15.9154 15.936 14.9732 16.3263C14.031 16.7165 12.9943 16.8186 11.9941 16.6197C10.9939 16.4207 10.0751 15.9296 9.35398 15.2085C8.63287 14.4874 8.14179 13.5686 7.94283 12.5684C7.74388 11.5682 7.84599 10.5315 8.23625 9.58929C8.62652 8.64711 9.28741 7.84181 10.1353 7.27523C10.9833 6.70866 11.9802 6.40625 13 6.40625C14.3675 6.40625 15.679 6.9495 16.646 7.91648C17.613 8.88346 18.1563 10.195 18.1563 11.5625ZM25.1875 12.5C25.1875 14.9105 24.4727 17.2668 23.1335 19.271C21.7944 21.2752 19.8909 22.8373 17.664 23.7598C15.437 24.6822 12.9865 24.9236 10.6223 24.4533C8.2582 23.9831 6.08659 22.8223 4.38214 21.1179C2.67769 19.4134 1.51694 17.2418 1.04668 14.8777C0.576428 12.5135 0.817781 10.063 1.74022 7.83604C2.66267 5.60907 4.22477 3.70564 6.22899 2.36646C8.23322 1.02728 10.5895 0.3125 13 0.3125C16.2304 0.318694 19.3268 1.60472 21.611 3.88898C23.8953 6.17324 25.1813 9.26958 25.1875 12.5ZM23.3125 12.5C23.3131 10.8298 22.908 9.18439 22.1321 7.70534C21.3562 6.22629 20.2326 4.95784 18.858 4.00906C17.4834 3.06029 15.899 2.45959 14.2409 2.25862C12.5828 2.05764 10.9007 2.26241 9.33923 2.85532C7.77778 3.44822 6.38371 4.41152 5.27689 5.66236C4.17008 6.91321 3.38364 8.41418 2.98521 10.0362C2.58679 11.6582 2.5883 13.3527 2.98961 14.974C3.39092 16.5953 4.18003 18.0949 5.28907 19.3437C6.04795 18.2552 7.02587 17.3371 8.16016 16.6484C9.46252 17.8961 11.1964 18.5927 13 18.5927C14.8036 18.5927 16.5375 17.8961 17.8398 16.6484C18.9741 17.3371 19.9521 18.2552 20.7109 19.3437C22.3898 17.4598 23.3159 15.0235 23.3125 12.5Z" fill="#B9A55E"/>
</svg>
