<svg width="32" height="33" viewBox="0 0 32 33" fill="none" xmlns="http://www.w3.org/2000/svg">
<path d="M27.4286 16.1199C27.4286 9.83417 22.2857 4.69127 16 4.69127C9.71427 4.69127 4.57141 9.83417 4.57141 16.1199C4.57141 22.4056 9.71427 27.5484 16 27.5484C22.2857 27.5484 27.4286 22.4056 27.4286 16.1199Z" fill="white"/>
<path d="M27.4286 16.1199C27.4286 9.83417 22.2857 4.69127 16 4.69127C9.71427 4.69127 4.57141 9.83417 4.57141 16.1199C4.57141 22.4056 9.71427 27.5484 16 27.5484C22.2857 27.5484 27.4286 22.4056 27.4286 16.1199Z" fill="#704A2C"/>
<path d="M12.8568 7.77539C13.171 7.77539 13.4172 8.02359 13.4172 8.32584C13.4172 8.54602 13.6054 8.72216 13.8275 8.72216H14.5681C15.6951 8.72816 16.6138 9.6309 16.6218 10.7298V10.8699C17.3304 10.8699 18.041 10.8839 18.7576 10.8919C21.3497 10.8919 23.2392 12.7394 23.2392 15.2915V18.5682C23.2392 21.1202 21.3497 22.9677 18.7576 22.9677C17.7207 22.9898 16.6819 22.9978 15.637 22.9978C14.5922 22.9978 13.5373 22.9898 12.5005 22.9677C9.90836 22.9677 8.01882 21.1202 8.01882 18.5682V15.2915C8.01882 12.7394 9.90837 10.8919 12.5085 10.8919C13.4873 10.8779 14.4861 10.8619 15.5029 10.8619V10.7378C15.5029 10.2314 15.0786 9.82105 14.5702 9.82105H13.8295C12.9849 9.82105 12.2983 9.1465 12.2983 8.32584C12.2983 8.02559 12.5525 7.77539 12.8568 7.77539Z" fill="white"/>
<path d="M18.3652 14.2566H18.2551C17.7888 14.2566 17.4185 14.6269 17.4185 15.0753C17.4185 15.5357 17.7868 15.894 18.2551 15.894H18.3652C18.8236 15.894 19.2019 15.5357 19.2019 15.0753C19.2019 14.6269 18.8236 14.2566 18.3652 14.2566Z" fill="white"/>
<path d="M18.3652 14.2566H18.2551C17.7888 14.2566 17.4185 14.6269 17.4185 15.0753C17.4185 15.5357 17.7868 15.894 18.2551 15.894H18.3652C18.8236 15.894 19.2019 15.5357 19.2019 15.0753C19.2019 14.6269 18.8236 14.2566 18.3652 14.2566Z" fill="#704A2C"/>
<path d="M20.2688 18.0157H20.1587C19.6883 18.0157 19.322 18.388 19.322 18.8383C19.322 19.2967 19.6883 19.657 20.1587 19.657H20.2688C20.7272 19.657 21.1055 19.2947 21.1055 18.8383C21.1055 18.39 20.7272 18.0157 20.2688 18.0157Z" fill="white"/>
<path d="M20.2688 18.0157H20.1587C19.6883 18.0157 19.322 18.388 19.322 18.8383C19.322 19.2967 19.6883 19.657 20.1587 19.657H20.2688C20.7272 19.657 21.1055 19.2947 21.1055 18.8383C21.1055 18.39 20.7272 18.0157 20.2688 18.0157Z" fill="#704A2C"/>
<path d="M12.6646 14.1345C12.1982 14.1345 11.8319 14.5088 11.8319 14.9572V16.1061H10.6509C10.1926 16.1061 9.81427 16.4764 9.81427 16.9248C9.81427 17.3832 10.1926 17.7435 10.6509 17.7435H11.8319V18.9004C11.8319 19.3508 12.1982 19.7231 12.6646 19.7231C13.123 19.7231 13.5013 19.3528 13.5013 18.9004V17.7435H14.6702C15.1286 17.7435 15.5069 17.3812 15.5069 16.9248C15.5069 16.4764 15.1286 16.1061 14.6702 16.1061H13.5013V14.9572C13.5013 14.5088 13.123 14.1345 12.6646 14.1345Z" fill="white"/>
<path d="M12.6646 14.1345C12.1982 14.1345 11.8319 14.5088 11.8319 14.9572V16.1061H10.6509C10.1926 16.1061 9.81427 16.4764 9.81427 16.9248C9.81427 17.3832 10.1926 17.7435 10.6509 17.7435H11.8319V18.9004C11.8319 19.3508 12.1982 19.7231 12.6646 19.7231C13.123 19.7231 13.5013 19.3528 13.5013 18.9004V17.7435H14.6702C15.1286 17.7435 15.5069 17.3812 15.5069 16.9248C15.5069 16.4764 15.1286 16.1061 14.6702 16.1061H13.5013V14.9572C13.5013 14.5088 13.123 14.1345 12.6646 14.1345Z" fill="#704A2C"/>
<path d="M25.7143 24.977L27.7143 26.977C30.2857 24.4056 31.7143 20.6913 32 16.6913H29.1429C28.8571 19.8341 27.7143 22.6913 25.7143 24.977ZM29.1429 15.5485H32C31.7143 11.5485 30.2857 8.11988 27.7143 5.26273L25.7143 7.26272C27.7143 9.54844 28.8571 12.4056 29.1429 15.5485ZM26.8571 4.40563C24.2857 1.8342 20.5714 0.405587 16.5714 0.119873V2.97702C19.7143 3.26274 22.5714 4.40562 24.8571 6.40562L26.8571 4.40563ZM15.4286 2.97702V0.119873C11.4286 0.405587 8 1.8342 5.14286 4.40563L7.14286 6.40562C9.42857 4.40562 12.2857 3.26274 15.4286 2.97702ZM6.28571 7.26272L4.28571 5.26273C1.71429 7.83416 0.285714 11.5485 0 15.5485H2.85714C3.14286 12.4056 4.28571 9.54844 6.28571 7.26272ZM2.85714 16.6913H0C0.285714 20.6913 1.71429 24.1199 4.28571 26.977L6.28571 24.977C4.28571 22.6913 3.14286 19.8341 2.85714 16.6913ZM5.14286 27.8342C7.71429 30.4056 11.4286 31.8342 15.4286 32.1199V29.2627C12.2857 28.977 9.42857 27.8342 7.14286 25.8342L5.14286 27.8342ZM16.5714 29.2627V32.1199C20.5714 31.8342 24 30.4056 26.8571 27.8342L24.8571 25.8342C22.5714 27.8342 19.7143 28.977 16.5714 29.2627Z" fill="#B9A55E"/>
</svg>
