<svg width="24" height="24" viewBox="0 0 24 24" fill="none" xmlns="http://www.w3.org/2000/svg">
<g clip-path="url(#clip0_244_1515)">
<path d="M24 12C24 5.38652 18.6114 0 12 0C5.38652 0 0 5.38861 0 12C0 18.6114 5.38861 24 12 24C18.6135 24 24 18.6114 24 12Z" fill="white"/>
<path d="M24 12C24 5.38652 18.6114 0 12 0C5.38652 0 0 5.38861 0 12C0 18.6114 5.38861 24 12 24C18.6135 24 24 18.6114 24 12Z" fill="#704A2C"/>
<g clip-path="url(#clip1_244_1515)">
<path fill-rule="evenodd" clip-rule="evenodd" d="M14.5 19.0015C14.898 19.0015 15.2795 18.8435 15.5605 18.562C15.842 18.2805 16 17.899 16 17.5015C16 15.1565 16 9.5015 16 9.5015H8V17.5015C8 17.899 8.158 18.2805 8.4395 18.562C8.7205 18.8435 9.102 19.0015 9.5 19.0015H14.5ZM10.008 12.6855C10.073 12.3985 10.185 12.1245 10.332 11.906C10.4865 11.677 10.7975 11.617 11.0265 11.771C11.255 11.9255 11.3155 12.2365 11.161 12.4655C10.9985 12.706 10.908 13.0675 10.9485 13.369C10.971 13.535 11.0475 13.6855 11.2465 13.6855C11.2915 13.6855 11.312 13.6525 11.3315 13.619C11.363 13.5645 11.387 13.502 11.4095 13.436C11.4815 13.2205 11.5295 12.974 11.5945 12.7495C11.775 12.131 12.102 11.6855 12.7465 11.6855C13.072 11.6855 13.327 11.781 13.5255 11.928C13.7665 12.1075 13.9285 12.373 14.0065 12.6855C14.2795 12.689 14.5 12.912 14.5 13.1855C14.5 13.4615 14.276 13.6855 14 13.6855H13.995C13.9275 13.9755 13.8105 14.252 13.6565 14.472C13.4985 14.698 13.1865 14.7535 12.9605 14.5955C12.734 14.4375 12.6785 14.1255 12.8365 13.8995C13.0035 13.661 13.0925 13.303 13.051 13.005C13.0275 12.837 12.948 12.6855 12.7465 12.6855C12.702 12.6855 12.681 12.7185 12.6615 12.7525C12.6305 12.8065 12.606 12.869 12.584 12.9355C12.512 13.1505 12.464 13.3975 12.3985 13.6215C12.218 14.2405 11.891 14.6855 11.2465 14.6855C10.5895 14.6855 10.211 14.331 10.0375 13.8405C10.02 13.7905 10.005 13.7385 9.9925 13.6855C9.72 13.6815 9.5 13.459 9.5 13.1855C9.5 12.9095 9.724 12.6855 10 12.6855H10.008ZM7 8.5015V12.0015C7 12.0015 7.3725 12.0015 6.5 12.0015C5.6715 12.0015 5 11.33 5 10.5015V7.5015C5 7.225 5.224 7.0015 5.5 7.0015H18.5C18.776 7.0015 19 7.225 19 7.5015C19 7.5015 19 9.3165 19 10.5015C19 11.33 18.3285 12.0015 17.5 12.0015C16.6275 12.0015 17 12.0015 17 12.0015V8.5015H7Z" fill="white"/>
</g>
</g>
<defs>
<clipPath id="clip0_244_1515">
<rect width="24" height="24" fill="white"/>
</clipPath>
<clipPath id="clip1_244_1515">
<rect width="16" height="16" fill="white" transform="translate(4 5)"/>
</clipPath>
</defs>
</svg>
